<?xml version="1.0" encoding="utf-8"?>
<!-- Generator: Adobe Illustrator 16.0.0, SVG Export Plug-In . SVG Version: 6.00 Build 0)  -->
<!DOCTYPE svg PUBLIC "-//W3C//DTD SVG 1.1//EN" "http://www.w3.org/Graphics/SVG/1.1/DTD/svg11.dtd">
<svg version="1.1" id="Layer_1" xmlns="http://www.w3.org/2000/svg" xmlns:xlink="http://www.w3.org/1999/xlink" x="0px" y="0px"
	 width="650px" height="212px" viewBox="0 0 650 212" enable-background="new 0 0 650 212" xml:space="preserve">
<g>
	<g>
		<path fill="#B1C9E9" d="M544.597,84.972V94c1.422,2.453,3.441,4.508,5.869,5.974V84.972H544.597z"/>
		<path fill="#7398CF" d="M555.444,76.665v25.849c1.264,0.162,2.535,0.23,3.811,0.206c1.143,0.072,2.289,0.072,3.432,0V76.665
			H555.444z"/>
		<path fill="#B1C9E9" d="M568.317,88.508v11.294c2.441-1.558,4.449-3.708,5.836-6.249v-5.046L568.317,88.508z"/>
		<path fill="#557EBF" d="M582.392,103.818l-4.873,4.875c-0.57,0.557-0.58,1.471-0.021,2.039c0.006,0.008,0.014,0.014,0.021,0.021
			l12.15,12.152c0.563,0.555,1.465,0.555,2.025,0l4.91-4.91c0.553-0.561,0.553-1.463,0-2.025l-12.152-12.152
			c-0.559-0.568-1.471-0.578-2.039-0.02C582.405,103.804,582.399,103.812,582.392,103.818"/>
		<path fill="#7398CF" d="M559.255,54.66c-17.063,0-30.896,13.833-30.896,30.896c0,17.063,13.834,30.895,30.896,30.895
			s30.895-13.832,30.895-30.895C590.149,68.492,576.317,54.66,559.255,54.66 M559.255,108.521
			c-12.656-0.02-22.902-10.286-22.896-22.941c0.008-12.657,10.264-22.914,22.918-22.92c12.656-0.005,22.926,10.242,22.943,22.898
			c0.02,12.665-10.232,22.946-22.898,22.966c-0.021,0-0.045,0-0.066,0"/>
	</g>
</g>
<g>
	<g>
		<path fill="#EA4535" d="M315.733,70.095h2.606l7.43-7.431l0.363-3.156c-13.829-12.208-34.934-10.889-47.141,2.941
			c-3.392,3.838-5.85,8.411-7.195,13.357c0.826-0.338,1.745-0.395,2.607-0.154l14.86-2.452c0,0,0.755-1.252,1.15-1.175
			c6.611-7.261,17.737-8.107,25.37-1.93H315.733L315.733,70.095z"/>
		<path fill="#557EBF" d="M336.356,75.807c-1.707-6.289-5.213-11.943-10.089-16.267l-10.426,10.427
			c4.403,3.599,6.913,9.02,6.805,14.707v1.853c5.125,0.002,9.28,4.157,9.282,9.283c-0.002,5.126-4.157,9.282-9.282,9.283H304.08
			l-1.854,1.879v11.135l1.854,1.854h18.566c13.331,0.102,24.224-10.621,24.327-23.954c0.064-8.085-3.92-15.667-10.617-20.197V75.807
			z"/>
		<path fill="#36A852" d="M285.487,119.841h18.566V104.98h-18.566c-1.322-0.002-2.629-0.286-3.833-0.836l-2.607,0.811l-7.482,7.431
			l-0.652,2.605C275.105,118.163,280.227,119.866,285.487,119.841L285.487,119.841z"/>
		<path fill="#F9BC15" d="M285.487,71.635c-13.337,0.077-24.077,10.951-24,24.288c0.043,7.446,3.522,14.455,9.427,18.992
			l10.766-10.766c-4.67-2.112-6.747-7.608-4.639-12.28c2.112-4.67,7.608-6.746,12.28-4.639c2.058,0.929,3.705,2.581,4.638,4.639
			l10.765-10.766C300.148,75.109,293.029,71.605,285.487,71.635L285.487,71.635z"/>
	</g>
</g>
<g>
	<path fill="#557EBF" d="M64.796,26.844H47.122c-2.428,0-4.387,1.916-4.387,4.343v13.078h23.258c2.865,0,5.207,2.313,5.207,5.179
		v9.746c0,2.866-2.342,5.223-5.207,5.223H42.747c0.07,2.356,1.992,4.251,4.375,4.251h25.824c2.429,0,4.399-1.99,4.399-4.418v-24.84
		L64.796,26.844z M57.553,39.274h-9.281c-0.513,0-0.928-0.435-0.928-0.948c0-0.256,0.104-0.498,0.271-0.666s0.399-0.28,0.656-0.28
		h9.281c0.514,0,0.93,0.434,0.93,0.947C58.483,38.84,58.067,39.274,57.553,39.274 M57.596,33.683h-9.281
		c-0.514,0-0.93-0.425-0.93-0.937c0-0.257,0.105-0.481,0.271-0.649c0.168-0.168,0.4-0.262,0.658-0.262h9.281
		c0.512,0,0.928,0.411,0.928,0.925C58.524,33.271,58.108,33.683,57.596,33.683 M63.944,40.199V29.953l10.274,10.246H63.944z"/>
	<path fill="#557EBF" d="M68.936,49.826c0-1.846-1.498-3.343-3.344-3.343H40.438c-1.846,0-3.342,1.497-3.342,3.343v9.026
		c0,1.847,1.496,3.343,3.342,3.343h25.154c1.846,0,3.344-1.496,3.344-3.343V49.826z M46.729,57.708c-2.404,0-3.42-1.654-3.43-3.336
		c-0.01-1.691,1.09-3.41,3.43-3.41c0.878,0,1.709,0.332,2.375,0.988l-0.814,0.785c-0.425-0.416-0.998-0.609-1.561-0.609
		c-1.563,0-2.238,1.164-2.229,2.246c0.01,1.072,0.629,2.189,2.229,2.189c0.563,0,1.201-0.23,1.625-0.655l0.832,0.841
		C48.522,57.404,47.661,57.708,46.729,57.708 M52.42,57.727c-1.32,0-2.338-0.407-2.818-1.588l1.017-0.528
		c0.286,0.711,1.036,1.026,1.822,1.026c0.765,0,1.487-0.268,1.487-0.97c0-0.61-0.639-0.86-1.498-0.952
		c-1.321-0.158-2.541-0.509-2.541-1.96c0-1.331,1.313-1.876,2.504-1.885c1.008,0,2.053,0.286,2.541,1.284l-0.971,0.499
		c-0.221-0.37-0.83-0.72-1.533-0.72c-0.905,0-1.34,0.378-1.34,0.86c0,0.562,0.666,0.721,1.441,0.812
		c1.35,0.167,2.605,0.518,2.605,2.062C55.137,57.107,53.863,57.727,52.42,57.727 M59.592,57.62h-1.266l-2.689-6.516h1.367
		l1.95,5.037l1.96-5.037h1.367L59.592,57.62z"/>
</g>
<g>
	<path fill="#557EBF" d="M69.001,124.331H51.326c-2.428,0-4.387,1.916-4.387,4.344v13.078h23.258c2.865,0,5.207,2.313,5.207,5.178
		v9.746c0,2.867-2.342,5.223-5.207,5.223H46.951c0.07,2.357,1.992,4.252,4.375,4.252H77.15c2.429,0,4.399-1.99,4.399-4.418v-24.84
		L69.001,124.331z M61.758,136.761h-9.281c-0.513,0-0.928-0.434-0.928-0.947c0-0.256,0.104-0.498,0.271-0.666
		s0.399-0.279,0.656-0.279h9.281c0.514,0,0.93,0.434,0.93,0.945C62.688,136.327,62.271,136.761,61.758,136.761 M61.801,131.171
		H52.52c-0.514,0-0.93-0.426-0.93-0.938c0-0.258,0.105-0.48,0.271-0.648c0.168-0.168,0.4-0.262,0.658-0.262h9.281
		c0.512,0,0.928,0.41,0.928,0.924C62.729,130.759,62.313,131.171,61.801,131.171 M68.148,137.687V127.44l10.274,10.246H68.148z"/>
	<path fill="#557EBF" d="M73.141,147.313c0-1.846-1.498-3.344-3.344-3.344H44.643c-1.846,0-3.342,1.498-3.342,3.344v9.025
		c0,1.848,1.496,3.344,3.342,3.344h25.154c1.846,0,3.344-1.496,3.344-3.344V147.313z M50.934,155.196
		c-2.404,0-3.42-1.654-3.43-3.336c-0.01-1.691,1.09-3.41,3.43-3.41c0.878,0,1.709,0.332,2.375,0.988l-0.814,0.785
		c-0.425-0.416-0.998-0.609-1.561-0.609c-1.563,0-2.238,1.164-2.229,2.246c0.01,1.072,0.629,2.189,2.229,2.189
		c0.563,0,1.201-0.23,1.625-0.656l0.832,0.842C52.727,154.892,51.865,155.196,50.934,155.196 M56.625,155.214
		c-1.32,0-2.338-0.406-2.818-1.588l1.017-0.527c0.286,0.711,1.036,1.025,1.822,1.025c0.765,0,1.487-0.268,1.487-0.971
		c0-0.609-0.639-0.859-1.498-0.951c-1.321-0.158-2.541-0.51-2.541-1.959c0-1.332,1.313-1.877,2.504-1.887
		c1.008,0,2.053,0.287,2.541,1.285l-0.971,0.498c-0.221-0.369-0.83-0.719-1.533-0.719c-0.905,0-1.34,0.377-1.34,0.859
		c0,0.563,0.666,0.721,1.441,0.813c1.35,0.166,2.605,0.518,2.605,2.061C59.342,154.595,58.067,155.214,56.625,155.214
		 M63.797,155.106h-1.266l-2.689-6.516h1.367l1.95,5.037l1.96-5.037h1.367L63.797,155.106z"/>
</g>
<text transform="matrix(1 0 0 1 23.2905 79.4668)" fill="#231F20" font-family="'CenturyGothic'" font-size="9">user_purchase.csv</text>
<text transform="matrix(1 0 0 1 23.2905 177.7305)" fill="#231F20" font-family="'CenturyGothic'" font-size="9"> movie_review.csv</text>
<text transform="matrix(1 0 0 1 530.8535 143.5352)" fill="#231F20" font-family="'CenturyGothic'" font-size="9">User Behavior </text>
<text transform="matrix(1 0 0 1 274.1304 145.2422)" fill="#231F20" font-family="'CenturyGothic'" font-size="9">Service on cloud</text>
<text transform="matrix(1 0 0 1 544.5957 154.3359)" fill="#231F20" font-family="'CenturyGothic'" font-size="9">Metrics</text>
<g>
	<g>
		<line fill="none" stroke="#231F20" stroke-width="2" stroke-miterlimit="10" x1="115.159" y1="47.753" x2="117.159" y2="47.753"/>
		
			<line fill="none" stroke="#231F20" stroke-width="2" stroke-miterlimit="10" stroke-dasharray="3.9927,3.9927" x1="121.151" y1="47.753" x2="159.082" y2="47.753"/>
		<line fill="none" stroke="#231F20" stroke-width="2" stroke-miterlimit="10" x1="161.078" y1="47.753" x2="163.078" y2="47.753"/>
		<g>
			<g>
				<circle fill="#FFFFFF" cx="115.329" cy="47.753" r="3.008"/>
				<path fill="#231F20" d="M115.329,51.161c1.879,0,3.408-1.529,3.408-3.408s-1.529-3.408-3.408-3.408s-3.408,1.529-3.408,3.408
					S113.45,51.161,115.329,51.161S113.45,51.161,115.329,51.161z M115.329,45.146c1.438,0,2.608,1.169,2.608,2.608
					s-1.169,2.608-2.608,2.608c-1.438,0-2.608-1.169-2.608-2.608S113.891,45.146,115.329,45.146
					C116.768,45.146,113.891,45.146,115.329,45.146z"/>
			</g>
		</g>
	</g>
</g>
<g>
	<g>
		
			<line fill="none" stroke="#231F20" stroke-width="2" stroke-miterlimit="10" x1="115.159" y1="145.241" x2="117.159" y2="145.241"/>
		
			<line fill="none" stroke="#231F20" stroke-width="2" stroke-miterlimit="10" stroke-dasharray="3.9927,3.9927" x1="121.151" y1="145.241" x2="159.082" y2="145.241"/>
		
			<line fill="none" stroke="#231F20" stroke-width="2" stroke-miterlimit="10" x1="161.078" y1="145.241" x2="163.078" y2="145.241"/>
		<g>
			<g>
				<circle fill="#FFFFFF" cx="115.329" cy="145.241" r="3.008"/>
				<path fill="#231F20" d="M115.329,148.649c1.879,0,3.408-1.529,3.408-3.408s-1.529-3.408-3.408-3.408s-3.408,1.529-3.408,3.408
					S113.45,148.649,115.329,148.649S113.45,148.649,115.329,148.649z M115.329,142.634c1.438,0,2.608,1.17,2.608,2.607
					c0,1.439-1.169,2.607-2.608,2.607c-1.438,0-2.608-1.168-2.608-2.607C112.721,143.804,113.891,142.634,115.329,142.634
					C116.768,142.634,113.891,142.634,115.329,142.634z"/>
			</g>
		</g>
	</g>
</g>
<g>
	<g>
		<line fill="none" stroke="#231F20" stroke-width="2" stroke-miterlimit="10" x1="165.421" y1="94.155" x2="167.421" y2="94.155"/>
		
			<line fill="none" stroke="#231F20" stroke-width="2" stroke-miterlimit="10" stroke-dasharray="3.8923,3.8923" x1="171.313" y1="94.155" x2="239.428" y2="94.155"/>
		<line fill="none" stroke="#231F20" stroke-width="2" stroke-miterlimit="10" x1="241.375" y1="94.155" x2="243.375" y2="94.155"/>
		<g>
			<g>
				<circle fill="#FFFFFF" cx="243.162" cy="94.155" r="3.76"/>
				<path fill="#231F20" d="M243.162,98.415c-2.349,0-4.26-1.911-4.26-4.26s1.911-4.26,4.26-4.26s4.26,1.911,4.26,4.26
					S245.51,98.415,243.162,98.415S245.51,98.415,243.162,98.415z M243.162,90.895c-1.798,0-3.26,1.462-3.26,3.26
					s1.462,3.26,3.26,3.26s3.26-1.462,3.26-3.26S244.959,90.895,243.162,90.895S244.959,90.895,243.162,90.895z"/>
			</g>
		</g>
	</g>
</g>
<g>
	<g>
		<line fill="none" stroke="#231F20" stroke-width="2" stroke-miterlimit="10" x1="163.078" y1="47.753" x2="163.078" y2="49.753"/>
		
			<line fill="none" stroke="#231F20" stroke-width="2" stroke-miterlimit="10" stroke-dasharray="4.0647,4.0647" x1="163.078" y1="53.818" x2="163.078" y2="141.21"/>
		
			<line fill="none" stroke="#231F20" stroke-width="2" stroke-miterlimit="10" x1="163.078" y1="143.241" x2="163.078" y2="145.241"/>
	</g>
</g>
<g>
	<g>
		<line fill="none" stroke="#231F20" stroke-width="2" stroke-miterlimit="10" x1="353.968" y1="94.155" x2="355.968" y2="94.155"/>
		
			<line fill="none" stroke="#231F20" stroke-width="2" stroke-miterlimit="10" stroke-dasharray="4.0873,4.0873" x1="360.056" y1="94.155" x2="513.331" y2="94.155"/>
		<line fill="none" stroke="#231F20" stroke-width="2" stroke-miterlimit="10" x1="515.374" y1="94.155" x2="517.374" y2="94.155"/>
		<g>
			<g>
				<circle fill="#FFFFFF" cx="354.181" cy="94.155" r="3.76"/>
				<path fill="#231F20" d="M354.181,98.415c2.35,0,4.26-1.911,4.26-4.26s-1.91-4.26-4.26-4.26c-2.348,0-4.26,1.911-4.26,4.26
					S351.833,98.415,354.181,98.415C356.53,98.415,351.833,98.415,354.181,98.415z M354.181,90.895c1.799,0,3.26,1.462,3.26,3.26
					s-1.461,3.26-3.26,3.26c-1.797,0-3.26-1.462-3.26-3.26S352.384,90.895,354.181,90.895
					C355.979,90.895,352.384,90.895,354.181,90.895z"/>
			</g>
		</g>
		<g>
			<g>
				<circle fill="#FFFFFF" cx="517.161" cy="94.155" r="3.76"/>
				<path fill="#231F20" d="M517.161,98.415c-2.348,0-4.26-1.911-4.26-4.26s1.912-4.26,4.26-4.26c2.35,0,4.26,1.911,4.26,4.26
					S519.511,98.415,517.161,98.415C514.813,98.415,519.511,98.415,517.161,98.415z M517.161,90.895c-1.797,0-3.26,1.462-3.26,3.26
					s1.463,3.26,3.26,3.26c1.799,0,3.26-1.462,3.26-3.26S518.96,90.895,517.161,90.895C515.364,90.895,518.96,90.895,517.161,90.895
					z"/>
			</g>
		</g>
	</g>
</g>
</svg>
