<?xml version="1.0" encoding="utf-8"?>
<!-- Generator: Adobe Illustrator 16.0.0, SVG Export Plug-In . SVG Version: 6.00 Build 0)  -->
<!DOCTYPE svg PUBLIC "-//W3C//DTD SVG 1.1//EN" "http://www.w3.org/Graphics/SVG/1.1/DTD/svg11.dtd">
<svg version="1.1" id="Layer_1" xmlns="http://www.w3.org/2000/svg" xmlns:xlink="http://www.w3.org/1999/xlink" x="0px" y="0px"
	 width="792px" height="612px" viewBox="0 0 792 612" enable-background="new 0 0 792 612" xml:space="preserve">
<rect x="169.798" y="124.957" fill="none" width="398.636" height="92.719"/>
<text transform="matrix(1 0 0 1 169.7979 136.9824)"><tspan x="0" y="0" font-family="'CenturyGothic'" font-size="14">A new tool to create insfraestructure in the cloud using </tspan><tspan x="0" y="16.8" font-family="'CenturyGothic'" font-size="14">code to automate configurations in future projects</tspan><tspan x="0" y="42" font-family="'CenturyGothic'" font-size="21">  </tspan></text>
<g>
	<rect x="169.798" y="296.328" fill="none" width="398.636" height="92.719"/>
	<text transform="matrix(1 0 0 1 169.7979 308.3535)"><tspan x="0" y="0" font-family="'CenturyGothic'" font-size="14">Better understanding of cloud services: costs, scopes and </tspan><tspan x="0" y="16.8" font-family="'CenturyGothic'" font-size="14">optimizations based on clusters</tspan></text>
</g>
<g>
	<rect x="169.798" y="472.307" fill="none" width="398.636" height="46.359"/>
	<text transform="matrix(1 0 0 1 169.7979 501.1328)"><tspan x="0" y="0" font-family="'CenturyGothic'" font-size="14">Found an efficient way to manage the tasks that need to </tspan><tspan x="0" y="16.8" font-family="'CenturyGothic'" font-size="14">be applied in a project</tspan></text>
</g>
<g>
	<defs>
		<rect id="SVGID_1_" width="792" height="612"/>
	</defs>
	<clipPath id="SVGID_2_">
		<use xlink:href="#SVGID_1_"  overflow="visible"/>
	</clipPath>
	<g clip-path="url(#SVGID_2_)">
		<g opacity="0.8">
			<g>
				<defs>
					<rect id="SVGID_3_" x="33.345" y="111.833" width="109" height="109"/>
				</defs>
				<clipPath id="SVGID_4_">
					<use xlink:href="#SVGID_3_"  overflow="visible"/>
				</clipPath>
				<path clip-path="url(#SVGID_4_)" fill="#623C97" d="M142.345,166.333c0,30.1-24.399,54.5-54.5,54.5c-30.1,0-54.5-24.4-54.5-54.5
					s24.4-54.5,54.5-54.5C117.945,111.833,142.345,136.234,142.345,166.333"/>
			</g>
		</g>
	</g>
	<path clip-path="url(#SVGID_2_)" fill="#FFFFFF" d="M96.575,200.033v-20.197l-17.494-10.104v20.197L96.575,200.033z
		 M96.575,177.628l-17.494-10.104v-20.206l17.494,10.103V177.628z"/>
	<polygon clip-path="url(#SVGID_2_)" fill="#FFFFFF" points="116.005,167.517 116.005,147.31 98.503,157.414 98.503,177.619 	"/>
	<polygon clip-path="url(#SVGID_2_)" fill="#FFFFFF" points="77.163,166.343 77.163,146.136 59.669,136.033 59.669,156.24 	"/>
	<g clip-path="url(#SVGID_2_)">
		<defs>
			<rect id="SVGID_5_" width="792" height="612"/>
		</defs>
		<clipPath id="SVGID_6_">
			<use xlink:href="#SVGID_5_"  overflow="visible"/>
		</clipPath>
		<g opacity="0.8" clip-path="url(#SVGID_6_)">
			<g>
				<defs>
					<rect id="SVGID_7_" x="35.845" y="276.247" width="109.001" height="109"/>
				</defs>
				<clipPath id="SVGID_8_">
					<use xlink:href="#SVGID_7_"  overflow="visible"/>
				</clipPath>
				<path clip-path="url(#SVGID_8_)" fill="#3B4197" d="M144.845,330.746c0,30.1-24.399,54.5-54.5,54.5s-54.5-24.4-54.5-54.5
					s24.399-54.5,54.5-54.5S144.845,300.646,144.845,330.746"/>
			</g>
		</g>
		<path clip-path="url(#SVGID_6_)" fill="#FFFFFF" d="M99.073,319.461l2.049,0.035l5.57-5.57l0.271-2.359
			c-4.418-3.936-10.25-6.334-16.625-6.334c-11.539,0-21.281,7.852-24.162,18.488c0.606-0.424,1.907-0.105,1.907-0.105l11.13-1.83
			c0,0,0.571-0.947,0.862-0.9c2.631-2.891,6.358-4.539,10.269-4.537c3.301,0.008,6.34,1.174,8.729,3.102V319.461z"/>
		<path clip-path="url(#SVGID_6_)" fill="#FFFFFF" d="M114.515,323.742c-1.293-4.77-3.958-8.979-7.556-12.176l-7.885,7.887
			c3.159,2.551,5.186,6.451,5.186,10.82v1.391c3.837,0,6.953,3.125,6.953,6.955c0,3.836-3.123,6.953-6.953,6.953H90.352l-1.393,1.4
			v8.346l1.393,1.385h13.908c9.982-0.014,18.07-8.102,18.085-18.084c-0.007-6.154-3.101-11.6-7.83-14.875V323.742z"/>
		<path clip-path="url(#SVGID_6_)" fill="#FFFFFF" d="M76.43,356.713h13.898v-11.141H76.43c-0.986,0-1.964-0.211-2.861-0.621
			l-2.008,0.616l-5.568,5.569l-0.489,1.879c3.139,2.395,6.979,3.691,10.926,3.689L76.43,356.713z"/>
		<path clip-path="url(#SVGID_6_)" fill="#FFFFFF" d="M76.43,320.543c-9.98,0.014-18.07,8.102-18.085,18.084
			c0,5.873,2.813,11.096,7.166,14.402l8.065-8.063c-2.496-1.125-4.099-3.605-4.101-6.34c0-3.838,3.124-6.953,6.954-6.953
			c2.818,0,5.244,1.699,6.34,4.1l8.063-8.064C87.527,323.355,82.304,320.543,76.43,320.543L76.43,320.543z"/>
	</g>
</g>
<g opacity="0.8">
	<g>
		<defs>
			<rect id="SVGID_9_" x="38.058" y="437.385" width="109" height="109"/>
		</defs>
		<clipPath id="SVGID_10_">
			<use xlink:href="#SVGID_9_"  overflow="visible"/>
		</clipPath>
		<path clip-path="url(#SVGID_10_)" fill="#33AF6E" d="M147.058,491.885c0,30.1-24.398,54.5-54.5,54.5c-30.1,0-54.5-24.4-54.5-54.5
			s24.4-54.5,54.5-54.5C122.659,437.385,147.058,461.785,147.058,491.885"/>
	</g>
</g>
<g>
	<g>
		<defs>
			<rect id="SVGID_11_" x="59.452" y="458.779" width="66.211" height="66.211"/>
		</defs>
		<clipPath id="SVGID_12_">
			<use xlink:href="#SVGID_11_"  overflow="visible"/>
		</clipPath>
		<g clip-path="url(#SVGID_12_)">
			<defs>
				<path id="SVGID_13_" d="M105.8,518.369h19.863l-31.781-26.484C93.446,501.506,97.681,510.916,105.8,518.369"/>
			</defs>
			<clipPath id="SVGID_14_">
				<use xlink:href="#SVGID_13_"  overflow="visible"/>
			</clipPath>
			
				<radialGradient id="SVGID_15_" cx="-4.5547" cy="618.0342" r="1.0005" gradientTransform="matrix(31.8 0 0 26.4745 238.7344 -15843.8594)" gradientUnits="userSpaceOnUse">
				<stop  offset="0" style="stop-color:#B6B7BA"/>
				<stop  offset="0.9096" style="stop-color:#636466"/>
				<stop  offset="1" style="stop-color:#5C5D5F"/>
			</radialGradient>
			<rect x="93.446" y="491.885" clip-path="url(#SVGID_14_)" fill="url(#SVGID_15_)" width="32.217" height="26.484"/>
		</g>
		<g clip-path="url(#SVGID_12_)">
			<defs>
				<path id="SVGID_16_" d="M66.073,505.127v19.863l26.484-31.781c-0.451-0.02-0.9-0.029-1.352-0.029
					C82.062,493.18,73.177,497.389,66.073,505.127"/>
			</defs>
			<clipPath id="SVGID_17_">
				<use xlink:href="#SVGID_16_"  overflow="visible"/>
			</clipPath>
			
				<radialGradient id="SVGID_18_" cx="5.1943" cy="619.6748" r="1.0005" gradientTransform="matrix(0 31.825 -26.4953 0 16484.6094 327.8125)" gradientUnits="userSpaceOnUse">
				<stop  offset="0" style="stop-color:#BEBFC1"/>
				<stop  offset="1" style="stop-color:#B0B2B4"/>
			</radialGradient>
			<rect x="66.073" y="493.18" clip-path="url(#SVGID_17_)" fill="url(#SVGID_18_)" width="26.484" height="31.811"/>
		</g>
		<g clip-path="url(#SVGID_12_)">
			<defs>
				<path id="SVGID_19_" d="M59.452,465.4l31.781,26.484c0.437-9.619-3.799-19.029-11.918-26.484H59.452z"/>
			</defs>
			<clipPath id="SVGID_20_">
				<use xlink:href="#SVGID_19_"  overflow="visible"/>
			</clipPath>
			
				<radialGradient id="SVGID_21_" cx="6.563" cy="607.957" r="1.0005" gradientTransform="matrix(-31.8 0 0 -26.4745 299.9063 16560.8281)" gradientUnits="userSpaceOnUse">
				<stop  offset="0" style="stop-color:#6B6C6F"/>
				<stop  offset="0.137" style="stop-color:#656568"/>
				<stop  offset="0.386" style="stop-color:#555455"/>
				<stop  offset="0.7159" style="stop-color:#3B393A"/>
				<stop  offset="1" style="stop-color:#231F20"/>
			</radialGradient>
			<rect x="59.452" y="465.4" clip-path="url(#SVGID_20_)" fill="url(#SVGID_21_)" width="32.218" height="26.484"/>
		</g>
		<g clip-path="url(#SVGID_12_)">
			<defs>
				<path id="SVGID_22_" d="M119.042,458.779l-26.484,31.781c9.62,0.438,19.03-3.799,26.484-11.918V458.779z"/>
			</defs>
			<clipPath id="SVGID_23_">
				<use xlink:href="#SVGID_22_"  overflow="visible"/>
			</clipPath>
			
				<radialGradient id="SVGID_24_" cx="-3.1992" cy="606.3174" r="1" gradientTransform="matrix(0 -31.8 26.4745 0 -15932.8594 388.9063)" gradientUnits="userSpaceOnUse">
				<stop  offset="0" style="stop-color:#D8D9DA"/>
				<stop  offset="1" style="stop-color:#D6D8D8"/>
			</radialGradient>
			<rect x="92.558" y="458.779" clip-path="url(#SVGID_23_)" fill="url(#SVGID_24_)" width="26.484" height="32.219"/>
		</g>
		<g clip-path="url(#SVGID_12_)">
			<defs>
				<path id="SVGID_25_" d="M92.558,491.885c-2.969,7.695-2.521,15.541,1.324,23.174c3.973,1.986,7.283,3.311,11.918,3.311
					c-8.119-7.453-12.354-16.863-11.918-26.484H92.558z"/>
			</defs>
			<clipPath id="SVGID_26_">
				<use xlink:href="#SVGID_25_"  overflow="visible"/>
			</clipPath>
			
				<radialGradient id="SVGID_27_" cx="-10.6606" cy="618.0547" r="1" gradientTransform="matrix(15.1587 0 0 26.4501 252.2109 -15829.4375)" gradientUnits="userSpaceOnUse">
				<stop  offset="0" style="stop-color:#7B7D80"/>
				<stop  offset="1" style="stop-color:#696A6C"/>
			</radialGradient>
			<rect x="89.589" y="491.885" clip-path="url(#SVGID_26_)" fill="url(#SVGID_27_)" width="16.211" height="26.484"/>
		</g>
		<g clip-path="url(#SVGID_12_)">
			<defs>
				<path id="SVGID_28_" d="M69.384,493.209c-1.984,3.973-3.311,7.283-3.311,11.918c7.455-8.119,16.865-12.354,26.484-11.918v-1.324
					c-3.348-1.291-6.723-1.936-10.097-1.936C78.077,489.949,73.696,491.037,69.384,493.209"/>
			</defs>
			<clipPath id="SVGID_29_">
				<use xlink:href="#SVGID_28_"  overflow="visible"/>
			</clipPath>
			
				<radialGradient id="SVGID_30_" cx="9.7822" cy="619.6992" r="0.9995" gradientTransform="matrix(0 15.1587 -26.45 0 16457.2031 341.6484)" gradientUnits="userSpaceOnUse">
				<stop  offset="0" style="stop-color:#7E8183"/>
				<stop  offset="1" style="stop-color:#636568"/>
			</radialGradient>
			<rect x="66.073" y="489.949" clip-path="url(#SVGID_29_)" fill="url(#SVGID_30_)" width="26.484" height="15.178"/>
		</g>
		<g clip-path="url(#SVGID_12_)">
			<defs>
				<path id="SVGID_31_" d="M91.233,491.885h1.324c2.969-7.695,2.52-15.541-1.324-23.174c-3.973-1.986-7.283-3.311-11.918-3.311
					C87.435,472.855,91.67,482.266,91.233,491.885"/>
			</defs>
			<clipPath id="SVGID_32_">
				<use xlink:href="#SVGID_31_"  overflow="visible"/>
			</clipPath>
			
				<radialGradient id="SVGID_33_" cx="12.6606" cy="607.9414" r="1" gradientTransform="matrix(-15.1586 0 0 -26.45 286.4063 16545.4844)" gradientUnits="userSpaceOnUse">
				<stop  offset="0" style="stop-color:#231F20"/>
				<stop  offset="1" style="stop-color:#231F20"/>
			</radialGradient>
			<rect x="79.315" y="465.4" clip-path="url(#SVGID_32_)" fill="url(#SVGID_33_)" width="16.211" height="26.484"/>
		</g>
		<g clip-path="url(#SVGID_12_)">
			<defs>
				<path id="SVGID_34_" d="M92.558,490.561v1.324c7.695,2.969,15.541,2.521,23.174-1.324c1.986-3.973,3.311-7.283,3.311-11.918
					C111.588,486.762,102.178,490.998,92.558,490.561"/>
			</defs>
			<clipPath id="SVGID_35_">
				<use xlink:href="#SVGID_34_"  overflow="visible"/>
			</clipPath>
			
				<radialGradient id="SVGID_36_" cx="-7.7856" cy="606.3496" r="1" gradientTransform="matrix(0 -15.2161 26.5502 0 -15979.5938 375.3594)" gradientUnits="userSpaceOnUse">
				<stop  offset="0" style="stop-color:#A2A5A7"/>
				<stop  offset="1" style="stop-color:#66676A"/>
			</radialGradient>
			<rect x="92.558" y="478.643" clip-path="url(#SVGID_35_)" fill="url(#SVGID_36_)" width="26.484" height="16.211"/>
		</g>
		<g clip-path="url(#SVGID_12_)">
			<defs>
				<path id="SVGID_37_" d="M77.991,501.816l15.891,13.242c-3.846-7.633-4.293-15.479-1.324-23.174
					c-0.459-0.152-0.998-0.227-1.592-0.227C86.413,491.658,78.577,495.961,77.991,501.816"/>
			</defs>
			<clipPath id="SVGID_38_">
				<use xlink:href="#SVGID_37_"  overflow="visible"/>
			</clipPath>
			
				<radialGradient id="SVGID_39_" cx="-10.127" cy="618.708" r="1.0005" gradientTransform="matrix(15.87 0 0 23.37 238.7031 -13944.2188)" gradientUnits="userSpaceOnUse">
				<stop  offset="0" style="stop-color:#B7B9BA"/>
				<stop  offset="1" style="stop-color:#BBBCBF"/>
			</radialGradient>
			<rect x="77.991" y="491.658" clip-path="url(#SVGID_38_)" fill="url(#SVGID_39_)" width="15.891" height="23.4"/>
		</g>
		<g clip-path="url(#SVGID_12_)">
			<defs>
				<path id="SVGID_40_" d="M69.384,493.209c7.634-3.844,15.479-4.293,23.174-1.324c1.324-3.973-3.311-13.904-9.932-14.566
					L69.384,493.209z"/>
			</defs>
			<clipPath id="SVGID_41_">
				<use xlink:href="#SVGID_40_"  overflow="visible"/>
			</clipPath>
			
				<radialGradient id="SVGID_42_" cx="9.3877" cy="620.5537" r="1" gradientTransform="matrix(0 15.93 -23.4583 0 14626.5313 327.7344)" gradientUnits="userSpaceOnUse">
				<stop  offset="0" style="stop-color:#D7D8D9"/>
				<stop  offset="1" style="stop-color:#D2D3D4"/>
			</radialGradient>
			<rect x="69.384" y="477.318" clip-path="url(#SVGID_41_)" fill="url(#SVGID_42_)" width="24.498" height="15.891"/>
		</g>
		<g clip-path="url(#SVGID_12_)">
			<defs>
				<path id="SVGID_43_" d="M92.558,491.885c3.973,1.324,13.904-3.311,14.566-9.932l-15.891-13.242
					C95.077,476.344,95.526,484.189,92.558,491.885"/>
			</defs>
			<clipPath id="SVGID_44_">
				<use xlink:href="#SVGID_43_"  overflow="visible"/>
			</clipPath>
			
				<radialGradient id="SVGID_45_" cx="12.1113" cy="607.3301" r="1.001" gradientTransform="matrix(-15.93 0 0 -23.4583 300.0781 14715.6563)" gradientUnits="userSpaceOnUse">
				<stop  offset="0" style="stop-color:#6E6F72"/>
				<stop  offset="0.8753" style="stop-color:#545658"/>
				<stop  offset="1" style="stop-color:#515254"/>
			</radialGradient>
			<rect x="91.233" y="468.711" clip-path="url(#SVGID_44_)" fill="url(#SVGID_45_)" width="15.891" height="24.498"/>
		</g>
		<g clip-path="url(#SVGID_12_)">
			<defs>
				<path id="SVGID_46_" d="M92.558,491.885c-1.324,3.973,3.311,13.904,9.932,14.566l13.242-15.891
					C108.099,494.406,100.253,494.854,92.558,491.885"/>
			</defs>
			<clipPath id="SVGID_47_">
				<use xlink:href="#SVGID_46_"  overflow="visible"/>
			</clipPath>
			
				<radialGradient id="SVGID_48_" cx="-7.4102" cy="605.4551" r="1.0005" gradientTransform="matrix(0 -15.9003 23.4145 0 -14060.7813 388.6328)" gradientUnits="userSpaceOnUse">
				<stop  offset="0" style="stop-color:#C6C8C9"/>
				<stop  offset="1" style="stop-color:#D8D9DB"/>
			</radialGradient>
			<rect x="91.233" y="490.561" clip-path="url(#SVGID_47_)" fill="url(#SVGID_48_)" width="24.498" height="15.891"/>
		</g>
		<path clip-path="url(#SVGID_12_)" fill="#231F20" d="M92.558,490.23c0.914,0,1.654,0.74,1.654,1.654s-0.74,1.656-1.654,1.656
			s-1.654-0.742-1.654-1.656S91.644,490.23,92.558,490.23"/>
	</g>
</g>
</svg>
