<?xml version="1.0" encoding="utf-8"?>
<!-- Generator: Adobe Illustrator 16.0.0, SVG Export Plug-In . SVG Version: 6.00 Build 0)  -->
<!DOCTYPE svg PUBLIC "-//W3C//DTD SVG 1.1//EN" "http://www.w3.org/Graphics/SVG/1.1/DTD/svg11.dtd">
<svg version="1.1" id="Layer_1" xmlns="http://www.w3.org/2000/svg" xmlns:xlink="http://www.w3.org/1999/xlink" x="0px" y="0px"
	 width="792px" height="612px" viewBox="0 0 792 612" enable-background="new 0 0 792 612" xml:space="preserve">
<g opacity="0.5">
	<g>
		<path fill="#7398CF" d="M325.21,431.625l-20.129,8.387v13.803c0,12.406,8.582,24.028,20.129,26.971
			c11.548-2.82,20.129-14.441,20.129-26.848v-13.926L325.21,431.625z M325.21,440.918c3.076,0.001,5.724,2.174,6.323,5.191
			s-1.016,6.038-3.858,7.216c-2.843,1.177-6.121,0.182-7.828-2.378c-1.708-2.558-1.373-5.967,0.802-8.141
			C321.859,441.598,323.499,440.918,325.21,440.918L325.21,440.918z M335.288,468.256c-2.569,3.344-6.078,5.846-10.078,7.184
			c-3.999-1.338-7.507-3.839-10.076-7.184v-5.517c0-4.095,6.718-6.179,10.076-6.179c3.359,0,10.078,2.084,10.078,6.179V468.256z"/>
		<path fill="#557EBF" d="M325.21,431.625v9.293c3.562,0,6.449,2.887,6.449,6.449c0,3.561-2.888,6.447-6.449,6.447v2.746
			c3.359,0,10.078,2.085,10.078,6.18v5.516c-2.569,3.345-6.078,5.847-10.078,7.185v5.222c11.548-2.82,20.129-14.441,20.129-26.848
			v-13.803L325.21,431.625z"/>
	</g>
</g>
<g opacity="0.5">
	<g>
		<path fill="#B1C9E9" d="M75.046,458.154v5.452c0.859,1.481,2.078,2.723,3.545,3.608v-9.061H75.046z"/>
		<path fill="#7398CF" d="M81.597,453.139v15.609c0.763,0.098,1.531,0.139,2.301,0.125c0.69,0.043,1.383,0.043,2.073,0v-15.734
			H81.597z"/>
		<path fill="#B1C9E9" d="M89.371,460.29v6.82c1.475-0.94,2.687-2.239,3.524-3.773v-3.047H89.371z"/>
		<path fill="#557EBF" d="M97.871,469.535l-2.944,2.944c-0.343,0.337-0.349,0.888-0.013,1.231c0.005,0.004,0.009,0.008,0.013,0.013
			l7.339,7.339c0.339,0.334,0.884,0.334,1.223,0l2.965-2.965c0.334-0.34,0.334-0.885,0-1.224l-7.339-7.339
			c-0.336-0.343-0.888-0.348-1.23-0.012C97.878,469.527,97.875,469.531,97.871,469.535"/>
		<path fill="#7398CF" d="M83.898,439.85c-10.304,0-18.657,8.354-18.657,18.658c0,10.303,8.354,18.656,18.657,18.656
			s18.657-8.354,18.657-18.656C102.555,448.203,94.202,439.85,83.898,439.85 M83.898,472.376
			c-7.643-0.012-13.831-6.212-13.827-13.854c0.005-7.643,6.198-13.838,13.841-13.841s13.844,6.185,13.855,13.827
			c0.011,7.648-6.18,13.857-13.829,13.869C83.925,472.377,83.912,472.377,83.898,472.376"/>
	</g>
</g>
<g opacity="0.5">
	<g>
		<path fill="#B1C9E9" d="M250.732,310.906v7.453l18.146,9.654v-7.451L250.732,310.906z M250.732,322.418v7.453l18.146,9.654v-7.451
			L250.732,322.418z"/>
		<path fill="#7398CF" d="M268.878,328.014l18.146-9.654v-7.453l-18.146,9.656V328.014z M268.878,339.525l18.146-9.654v-7.453
			l-18.146,9.656V339.525z"/>
		<path fill="#557EBF" d="M287.025,307.119v-7.452l-18.146-9.656v7.452L287.025,307.119z"/>
		<path fill="#7398CF" d="M268.878,290.011l-18.146,9.656v7.452l18.146-9.656V290.011z"/>
		<path fill="#B1C9E9" d="M250.732,299.593v7.476l18.146,9.655v-7.477L250.732,299.593z"/>
		<path fill="#7398CF" d="M268.878,316.725l18.146-9.655v-7.476l-18.146,9.655V316.725z"/>
	</g>
</g>
<g opacity="0.5">
	<g>
		<g>
			<path fill="#B1C9E9" d="M133.9,560.66l-18.812,10.866l-1.811-3.104l18.83-10.885L133.9,560.66L133.9,560.66z"/>
			<path fill="#B1C9E9" d="M115.015,567.979v-21.731h3.456v19.126L115.015,567.979z"/>
			<path fill="#B1C9E9" d="M118.581,552.326l-0.48-4.361l18.83,10.848l-1.793,3.105L118.581,552.326z"/>
		</g>
		<path fill="#557EBF" d="M127.507,553.38l-9.406-5.415l0.48,4.361l2.791,1.59C123.397,554.639,125.637,554.442,127.507,553.38
			L127.507,553.38z"/>
		<path fill="#B1C9E9" d="M115.938,549.74L115.938,549.74c-1.929-3.342-0.784-7.613,2.557-9.543
			c2.163-1.248,4.826-1.247,6.988,0.002c3.34,1.932,4.481,6.204,2.551,9.544c-1.25,2.161-3.558,3.491-6.054,3.489
			C119.49,553.223,117.191,551.893,115.938,549.74L115.938,549.74z M124.938,544.565c-0.606-1.05-1.726-1.698-2.938-1.7
			c-1.867-0.01-3.39,1.495-3.4,3.363c0,0.006,0,0.012,0,0.019c-0.139,1.873,1.268,3.503,3.141,3.642
			c0.708,0.053,1.416-0.119,2.022-0.489c1.089-0.664,1.713-1.882,1.619-3.152C125.385,545.656,125.232,545.077,124.938,544.565z"/>
		<path fill="#557EBF" d="M115.015,558.332v9.646l3.456-2.605v-3.012C117.997,560.56,116.723,559.075,115.015,558.332z
			 M125.548,565.483l8.353-4.823l-4.084-1.848l-2.31,1.479c-1.288,1.457-1.986,3.341-1.959,5.285V565.483z"/>
		<path fill="#B1C9E9" d="M105.554,568.977L105.554,568.977c-1.932-3.328-0.8-7.592,2.528-9.523
			c0.007-0.004,0.014-0.008,0.022-0.012c1.595-0.936,3.5-1.189,5.285-0.702c3.73,0.983,5.957,4.804,4.974,8.534
			s-4.804,5.957-8.534,4.975C108.023,571.771,106.484,570.594,105.554,568.977z M114.516,563.784
			c-0.428-0.809-1.17-1.404-2.051-1.646c-1.803-0.49-3.661,0.573-4.151,2.375c-0.239,0.877-0.114,1.813,0.344,2.596l0,0
			c0.939,1.617,3.012,2.168,4.629,1.229c1.618-0.938,2.168-3.011,1.229-4.629l0,0V563.784z M127.396,568.348L127.396,568.348
			c-1.237-2.157-1.237-4.809,0-6.967c1.932-3.332,6.191-4.479,9.536-2.568c3.334,1.932,4.475,6.197,2.55,9.535
			c-1.936,3.338-6.21,4.475-9.547,2.539C128.881,570.275,128.006,569.4,127.396,568.348L127.396,568.348z M136.376,563.155
			c-0.308-0.506-0.732-0.931-1.238-1.237c-1.629-0.923-3.697-0.362-4.638,1.256c-0.593,1.049-0.593,2.332,0,3.382
			c0.769,1.333,2.341,1.979,3.825,1.571c0.865-0.23,1.604-0.796,2.051-1.571C136.969,565.499,136.969,564.211,136.376,563.155
			L136.376,563.155z"/>
		<path fill="#7398CF" d="M118.452,564.264c0,0-4.325,3.696-5.174,4.158l5.285-3.049
			C118.554,565.001,118.516,564.631,118.452,564.264z M119.671,552.9c0,0-1.09-6.063-1.09-6.653v6.079
			c0.348,0.2,0.712,0.367,1.09,0.5V552.9z M129.188,559.313c0,0,5.1,2.125,5.95,2.605l-5.285-3.031
			C129.614,559,129.391,559.143,129.188,559.313L129.188,559.313z"/>
	</g>
</g>
<g opacity="0.4">
	<g>
		<path fill="#356891" d="M358.552,353.221c-3.392,0.7-3.625-0.448-3.625-0.448c3.581-5.313,5.078-12.058,3.786-13.708
			c-3.524-4.504-9.625-2.374-9.727-2.318l-0.033,0.006c-0.67-0.139-1.42-0.222-2.263-0.236c-1.535-0.024-2.699,0.402-3.582,1.072
			c0,0-10.883-4.482-10.377,5.639c0.108,2.154,3.086,16.293,6.639,12.022c1.299-1.562,2.554-2.882,2.554-2.882
			c0.623,0.414,1.369,0.625,2.151,0.549l0.061-0.051c-0.019,0.193-0.01,0.383,0.024,0.607c-0.916,1.023-0.646,1.202-2.476,1.578
			c-1.852,0.383-0.764,1.061-0.054,1.238c0.861,0.216,2.853,0.521,4.198-1.363l-0.054,0.215c0.359,0.287,0.61,1.869,0.568,3.303
			c-0.042,1.433-0.071,2.417,0.212,3.186s0.564,2.498,2.97,1.982c2.01-0.431,3.051-1.547,3.196-3.408
			c0.103-1.323,0.335-1.128,0.35-2.312l0.187-0.56c0.215-1.795,0.034-2.373,1.272-2.104l0.301,0.026
			c0.911,0.041,2.104-0.146,2.804-0.472C359.144,354.082,360.038,352.914,358.552,353.221L358.552,353.221"/>
		<path fill="#FFFFFF" d="M343.746,344.189c-0.306-0.042-0.583-0.003-0.722,0.104c-0.079,0.059-0.104,0.129-0.11,0.176
			c-0.018,0.127,0.071,0.266,0.125,0.338c0.153,0.203,0.377,0.343,0.6,0.373c0.032,0.005,0.064,0.008,0.096,0.008
			c0.37,0,0.707-0.289,0.736-0.502C344.508,344.42,344.121,344.242,343.746,344.189 M353.871,344.198L353.871,344.198
			c-0.029-0.209-0.401-0.269-0.753-0.22s-0.693,0.208-0.665,0.418c0.023,0.162,0.317,0.44,0.665,0.44
			c0.029,0,0.059-0.002,0.089-0.007c0.232-0.031,0.402-0.18,0.483-0.264C353.813,344.437,353.884,344.292,353.871,344.198
			 M359.68,353.142c-0.129-0.392-0.545-0.517-1.237-0.374c-2.054,0.424-2.789,0.13-3.03-0.048c1.596-2.431,2.909-5.37,3.617-8.112
			c0.335-1.299,0.521-2.506,0.536-3.488c0.017-1.08-0.167-1.872-0.546-2.356c-1.528-1.953-3.771-3.001-6.487-3.029
			c-1.866-0.021-3.443,0.457-3.75,0.591c-0.644-0.16-1.346-0.258-2.11-0.271c-1.401-0.022-2.613,0.313-3.616,0.997
			c-0.953-0.35-1.937-0.607-2.938-0.771c-2.38-0.384-4.271-0.093-5.622,0.863c-1.61,1.141-2.354,3.181-2.21,6.062
			c0.048,0.971,0.601,3.952,1.473,6.809c1.147,3.76,2.395,5.887,3.707,6.325c0.169,0.058,0.347,0.087,0.526,0.087
			c0.479,0,1.066-0.216,1.676-0.95c0.745-0.894,1.516-1.765,2.311-2.614c0.512,0.277,1.081,0.43,1.662,0.447l0.004,0.045
			c-0.116,0.139-0.211,0.26-0.293,0.362c-0.402,0.51-0.485,0.616-1.778,0.882c-0.368,0.076-1.344,0.277-1.359,0.963
			c-0.015,0.748,1.155,1.063,1.288,1.096c0.464,0.116,0.912,0.174,1.339,0.174c1.038,0,1.952-0.342,2.682-1.002
			c-0.022,2.667,0.089,5.295,0.409,6.096c0.263,0.655,0.903,2.258,2.927,2.258c0.297,0,0.624-0.035,0.983-0.111
			c2.112-0.453,3.029-1.387,3.384-3.445c0.19-1.1,0.516-3.727,0.669-5.135c0.323,0.101,0.74,0.146,1.189,0.146
			c0.939,0,2.022-0.199,2.701-0.515c0.763-0.354,2.14-1.224,1.891-1.979l0,0L359.68,353.142z M354.65,343.622
			c-0.007,0.415-0.064,0.793-0.125,1.188c-0.065,0.423-0.133,0.862-0.149,1.394c-0.017,0.518,0.048,1.057,0.11,1.577
			c0.126,1.052,0.256,2.134-0.246,3.202c-0.078-0.139-0.153-0.29-0.222-0.457c-0.063-0.152-0.198-0.395-0.385-0.73
			c-0.73-1.309-2.438-4.373-1.564-5.625C352.329,343.799,352.99,343.416,354.65,343.622L354.65,343.622L354.65,343.622z
			 M352.638,336.576c2.433,0.053,4.357,0.963,5.72,2.705c1.045,1.335-0.106,7.412-3.437,12.654l-0.101-0.127l-0.042-0.053
			c0.861-1.422,0.692-2.828,0.542-4.076c-0.062-0.512-0.12-0.995-0.105-1.449c0.015-0.481,0.079-0.894,0.14-1.293
			c0.076-0.492,0.153-1.001,0.131-1.602c0.018-0.073,0.022-0.149,0.014-0.225c-0.054-0.576-0.711-2.297-2.05-3.855
			c-0.732-0.854-1.8-1.807-3.258-2.45C350.819,336.676,351.677,336.555,352.638,336.576L352.638,336.576L352.638,336.576z
			 M339.024,354.938c-0.673,0.809-1.137,0.653-1.29,0.603c-0.996-0.332-2.151-2.436-3.169-5.773
			c-0.881-2.887-1.396-5.79-1.437-6.604c-0.129-2.575,0.495-4.369,1.855-5.334c2.213-1.569,5.851-0.63,7.313-0.153l-0.064,0.062
			c-2.398,2.422-2.342,6.562-2.336,6.814c0.003,0.143,0.009,0.284,0.019,0.426c0.042,0.696,0.119,1.992-0.087,3.459
			c-0.191,1.364,0.229,2.699,1.153,3.662c0.096,0.1,0.196,0.193,0.299,0.281C340.504,353.213,339.752,354.065,339.024,354.938
			L339.024,354.938L339.024,354.938z M341.587,351.518c-0.744-0.776-1.083-1.856-0.927-2.963c0.217-1.551,0.137-2.9,0.094-3.625
			l-0.015-0.262c0.351-0.311,1.975-1.18,3.132-0.914c0.529,0.121,0.851,0.48,0.985,1.1c0.693,3.205,0.091,4.541-0.392,5.613
			c-0.1,0.221-0.194,0.431-0.274,0.646l-0.063,0.167c-0.158,0.423-0.304,0.815-0.395,1.188
			C342.942,352.467,342.172,352.129,341.587,351.518L341.587,351.518L341.587,351.518z M341.709,355.84
			c-0.199-0.049-0.388-0.13-0.561-0.24c0.102-0.049,0.283-0.113,0.597-0.178c1.521-0.313,1.756-0.535,2.269-1.186
			c0.117-0.149,0.251-0.318,0.435-0.525c0.275-0.308,0.401-0.256,0.629-0.161c0.185,0.077,0.365,0.309,0.438,0.563
			c0.035,0.121,0.073,0.35-0.053,0.527C344.392,356.141,342.83,356.121,341.709,355.84L341.709,355.84L341.709,355.84z
			 M349.669,363.247c-1.861,0.399-2.52-0.55-2.954-1.636c-0.28-0.701-0.418-3.86-0.32-7.35c0.001-0.047-0.005-0.092-0.018-0.134
			c-0.011-0.083-0.029-0.165-0.052-0.247c-0.145-0.508-0.5-0.932-0.924-1.107c-0.169-0.07-0.479-0.199-0.851-0.104
			c0.08-0.326,0.217-0.695,0.367-1.096l0.063-0.168c0.071-0.189,0.159-0.387,0.252-0.595c0.506-1.123,1.198-2.661,0.447-6.137
			c-0.281-1.302-1.221-1.937-2.646-1.789c-0.854,0.088-1.636,0.433-2.025,0.63c-0.083,0.043-0.161,0.084-0.232,0.124
			c0.109-1.312,0.52-3.763,2.057-5.313c0.968-0.977,2.257-1.459,3.828-1.433c3.095,0.051,5.08,1.64,6.2,2.963
			c0.965,1.141,1.488,2.289,1.696,2.909c-1.568-0.16-2.635,0.15-3.176,0.923c-1.177,1.683,0.644,4.946,1.519,6.515
			c0.16,0.288,0.299,0.537,0.342,0.643c0.285,0.689,0.654,1.15,0.923,1.487c0.083,0.103,0.163,0.203,0.224,0.29
			c-0.475,0.137-1.328,0.453-1.25,2.035c-0.063,0.794-0.509,4.51-0.735,5.822C352.103,362.216,351.464,362.861,349.669,363.247
			L349.669,363.247L349.669,363.247z M357.436,354.359c-0.486,0.226-1.299,0.395-2.071,0.432c-0.853,0.039-1.287-0.096-1.39-0.18
			c-0.048-0.985,0.319-1.089,0.708-1.197c0.061-0.018,0.12-0.034,0.178-0.055c0.038,0.031,0.077,0.06,0.118,0.087
			c0.686,0.452,1.908,0.501,3.635,0.145l0.019-0.004C358.398,353.805,358,354.098,357.436,354.359L357.436,354.359L357.436,354.359z
			"/>
	</g>
</g>
<g opacity="0.5">
	<path fill="#B1C9E9" d="M107.036,318.572h43.394v-15.188h-43.394V318.572z"/>
	<path fill="#7398CF" d="M146.091,318.572h4.339v-15.188h-4.339V318.572z"/>
	<path fill="#557EBF" d="M150.43,318.572h-4.339v-15.188L150.43,318.572z"/>
	<path fill="#7398CF" d="M107.036,318.572h4.339v-15.188h-4.339V318.572z"/>
	<path fill="#FFFFFF" d="M115.715,312.063h13.019v-2.169h-13.019V312.063z"/>
	<g>
		<path id="C_4_" fill="#FFFFFF" d="M135.242,310.979c0,1.804,1.452,3.255,3.255,3.255l0,0c1.803,0,3.254-1.451,3.254-3.255l0,0
			c0-1.803-1.452-3.254-3.254-3.254l0,0C136.694,307.725,135.242,309.176,135.242,310.979z"/>
	</g>
	<path fill="#B1C9E9" d="M107.036,337.126h43.394v-15.188h-43.394V337.126z"/>
	<path fill="#7398CF" d="M146.091,337.126h4.339v-15.188h-4.339V337.126z"/>
	<path fill="#557EBF" d="M150.43,337.126h-4.339v-15.188L150.43,337.126z"/>
	<path fill="#7398CF" d="M107.036,337.126h4.339v-15.188h-4.339V337.126z"/>
	<path fill="#FFFFFF" d="M115.715,330.617h13.019v-2.17h-13.019V330.617z"/>
	<g>
		<path id="C_3_" fill="#FFFFFF" d="M135.242,329.532c0,1.803,1.452,3.255,3.255,3.255l0,0c1.803,0,3.254-1.452,3.254-3.255l0,0
			c0-1.804-1.452-3.255-3.254-3.255l0,0C136.694,326.277,135.242,327.729,135.242,329.532z"/>
	</g>
</g>
<g opacity="0.5">
	<path fill="#32AF6E" d="M603.896,304.358l3.581-1.717c0.618-0.297,1.165-0.725,1.604-1.254l-4.589-3.802l0.001,0
		c-0.439,0.528-0.758,1.145-0.935,1.808l-1.022,3.838c-0.027,0.101,0.006,0.208,0.085,0.275l0.989,0.819l0,0
		C603.691,304.393,603.803,304.404,603.896,304.358L603.896,304.358z"/>
	<path fill="#32AF6E" d="M622.912,275.358l4.585,3.799l0.212-0.254c0.541-0.604,0.814-1.402,0.754-2.211
		c-0.059-0.809-0.446-1.558-1.07-2.076c-0.625-0.517-1.433-0.758-2.239-0.666c-0.806,0.092-1.538,0.508-2.031,1.152L622.912,275.358
		z"/>
	<path fill="#32AF6E" d="M602.465,305.429l0.369-0.447l-0.714-0.592l-0.369,0.446v0c-0.085,0.094-0.127,0.218-0.117,0.344
		c0.01,0.126,0.069,0.243,0.167,0.323c0.097,0.081,0.223,0.118,0.348,0.104S602.389,305.529,602.465,305.429L602.465,305.429z"/>
	<path fill="#32AF6E" d="M605.513,296.355l16.379-19.769l4.589,3.801l-16.38,19.769L605.513,296.355z"/>
	<path fill="#32AF6E" d="M591.687,285.66c-0.426,0-0.835,0.169-1.137,0.471c-0.303,0.301-0.471,0.71-0.471,1.137
		c0,0.426,0.168,0.835,0.471,1.137c0.302,0.301,0.711,0.471,1.137,0.471s0.835-0.169,1.137-0.471
		c0.303-0.302,0.471-0.711,0.471-1.137c0-0.427-0.168-0.836-0.471-1.137C592.521,285.829,592.112,285.66,591.687,285.66z"/>
	<path fill="#32AF6E" d="M597.046,286.198c-0.589,0.003-1.066,0.482-1.066,1.072c0,0.59,0.478,1.069,1.066,1.073h11.624l1.548-1.872
		l0,0c-0.198-0.176-0.453-0.273-0.718-0.273L597.046,286.198z"/>
	<path fill="#32AF6E" d="M591.687,278.326c-0.426,0-0.835,0.169-1.137,0.471c-0.303,0.302-0.471,0.711-0.471,1.137
		s0.168,0.836,0.471,1.137c0.302,0.302,0.711,0.472,1.137,0.472s0.835-0.17,1.137-0.472c0.303-0.301,0.471-0.71,0.471-1.137
		s-0.168-0.835-0.471-1.137C592.521,278.496,592.112,278.326,591.687,278.326z"/>
	<path fill="#32AF6E" d="M610.572,279.934c0-0.591-0.479-1.072-1.072-1.072h-12.454c-0.589,0.003-1.066,0.482-1.066,1.072
		c0,0.59,0.478,1.069,1.066,1.073H609.5C610.093,281.007,610.572,280.527,610.572,279.934z"/>
	<path fill="#32AF6E" d="M591.687,292.993c-0.426,0-0.835,0.169-1.137,0.471c-0.303,0.302-0.471,0.711-0.471,1.137
		c0,0.427,0.168,0.836,0.471,1.137c0.302,0.302,0.711,0.472,1.137,0.472s0.835-0.17,1.137-0.472c0.303-0.301,0.471-0.71,0.471-1.137
		c0-0.426-0.168-0.835-0.471-1.137C592.521,293.162,592.112,292.993,591.687,292.993z"/>
	<path fill="#32AF6E" d="M604.369,293.532h-7.323c-0.284,0-0.558,0.111-0.759,0.313c-0.202,0.201-0.315,0.474-0.315,0.759
		c0,0.285,0.113,0.558,0.315,0.759c0.201,0.201,0.475,0.314,0.759,0.313h5.549L604.369,293.532z"/>
	<path fill="#32AF6E" d="M591.687,300.327c-0.426,0-0.835,0.169-1.137,0.471c-0.303,0.302-0.471,0.711-0.471,1.137
		c0,0.427,0.168,0.835,0.471,1.137c0.302,0.302,0.711,0.472,1.137,0.472s0.835-0.169,1.137-0.472
		c0.303-0.301,0.471-0.71,0.471-1.137c0-0.426-0.168-0.835-0.471-1.137C592.521,300.496,592.112,300.327,591.687,300.327z"/>
	<path fill="#32AF6E" d="M596.289,301.176c-0.307,0.306-0.399,0.767-0.234,1.169c0.166,0.401,0.557,0.663,0.991,0.664h2.819
		c0.015-0.158,0.041-0.314,0.081-0.466l0.445-1.678h-3.346C596.763,300.864,596.49,300.976,596.289,301.176L596.289,301.176z"/>
	<path fill="#32AF6E" d="M616.961,278.34v-5.526c0.001-1.012-0.401-1.981-1.115-2.696c-0.716-0.715-1.685-1.116-2.695-1.116h-2.455
		c0.609,0.79,1.033,1.706,1.242,2.681h1.213c0.299-0.001,0.588,0.119,0.8,0.331c0.213,0.212,0.332,0.5,0.331,0.801v8.759
		L616.961,278.34z"/>
	<path fill="#32AF6E" d="M588.035,310.879h25.116c1.011,0.001,1.979-0.4,2.694-1.116c0.715-0.715,1.117-1.685,1.116-2.696v-10.989
		l-2.68,3.232v7.756c0,0.625-0.507,1.131-1.131,1.131h-25.116c-0.625,0-1.131-0.506-1.131-1.131v-34.254
		c-0.001-0.3,0.118-0.588,0.33-0.8c0.213-0.213,0.501-0.332,0.801-0.331h1.212l0,0c0.209-0.975,0.634-1.891,1.244-2.68h-2.456l0,0
		c-1.011,0-1.98,0.401-2.695,1.116c-0.714,0.715-1.116,1.685-1.116,2.695v34.254c0,1.012,0.402,1.98,1.116,2.696
		C586.055,310.479,587.024,310.879,588.035,310.879L588.035,310.879z"/>
	<path fill="#32AF6E" d="M609.424,273.256c0.002-0.866-0.248-1.714-0.722-2.438c-0.474-0.724-1.15-1.294-1.945-1.638
		c-0.902-0.428-1.51-1.305-1.594-2.3c-0.004-0.062-0.01-0.123-0.017-0.185c-0.179-1.565-1.149-2.929-2.568-3.611
		c-1.42-0.682-3.092-0.587-4.426,0.252c-1.331,0.838-2.142,2.303-2.142,3.878c0.007,0.379-0.101,0.752-0.308,1.069
		c-0.209,0.316-0.509,0.563-0.858,0.708c-1.851,0.766-3.083,2.214-3.083,4.264v0.001c0,0.301,0.12,0.589,0.333,0.803
		c0.213,0.212,0.502,0.333,0.803,0.333h15.39c0.302,0,0.591-0.12,0.804-0.333C609.303,273.845,609.423,273.557,609.424,273.256
		L609.424,273.256z M600.594,269.116c-0.505,0-0.989-0.201-1.346-0.558c-0.356-0.356-0.557-0.84-0.557-1.345
		c0-0.504,0.2-0.988,0.557-1.344c0.356-0.357,0.841-0.558,1.346-0.558c0.503,0,0.987,0.201,1.344,0.558
		c0.357,0.356,0.557,0.84,0.557,1.344c0,0.504-0.2,0.988-0.558,1.345C601.581,268.915,601.097,269.115,600.594,269.116
		L600.594,269.116z"/>
</g>
<path opacity="0.5" fill="#613A96" d="M381.419,188.475l-0.066-0.187c-0.034-0.095-0.073-0.188-0.116-0.279l-0.086-0.18l0.435-0.811
	c-0.211-0.276-0.458-0.521-0.735-0.729l-0.749,0.472l-0.198-0.096c-0.062-0.03-0.125-0.059-0.188-0.084l-0.201-0.081l-0.166-0.877
	l0,0c-0.469-0.09-0.952-0.09-1.42,0.003l-0.146,0.87l-0.207,0.082c-0.083,0.034-0.165,0.071-0.245,0.112l-0.195,0.101l-0.76-0.458
	l0-0.001c-0.261,0.203-0.495,0.441-0.693,0.706l0.48,0.733l-0.101,0.202h0c-0.059,0.117-0.108,0.24-0.149,0.364l-0.071,0.21
	l-0.86,0.193c-0.023,0.169-0.035,0.339-0.035,0.511c0,0.173,0.011,0.346,0.036,0.517l0.864,0.205l0.07,0.207v-0.001
	c0.032,0.095,0.07,0.189,0.113,0.28l0.084,0.181l-0.444,0.807c0.207,0.28,0.452,0.529,0.728,0.74l0.721-0.484l0.207,0.106
	c0.083,0.042,0.167,0.082,0.253,0.116l0.207,0.082l0.15,0.871h-0.002c0.461,0.089,0.933,0.09,1.394,0.003l0.155-0.869l0.205-0.082
	c0.097-0.039,0.194-0.083,0.288-0.132l0.222-0.114l0.669,0.514l0,0.001c0.27-0.205,0.51-0.444,0.715-0.712l-0.441-0.795l0.088-0.184
	c0.054-0.111,0.1-0.225,0.139-0.341l0.07-0.21l0.86-0.188v0c0.024-0.171,0.037-0.343,0.037-0.516c0-0.171-0.012-0.341-0.035-0.509
	L381.419,188.475z M378.645,191.294c-0.825,0-1.57-0.497-1.886-1.26c-0.315-0.762-0.141-1.639,0.443-2.224
	c0.583-0.583,1.462-0.758,2.224-0.442c0.763,0.315,1.259,1.06,1.259,1.885c0,0.541-0.215,1.06-0.597,1.443
	C379.705,191.08,379.186,191.294,378.645,191.294L378.645,191.294z M356.522,199.838c0,0.506,0.411,0.917,0.917,0.917h44.611
	c0.508,0,0.918-0.411,0.918-0.917v-3.543h-46.446L356.522,199.838z M377.12,198.131h3.936v0.788h-3.936V198.131z M384.726,201.543
	l2.31,5.772h-15.894l2.31-5.772H384.726z M376.286,181.845l0.206-0.082c0.133-0.052,0.263-0.11,0.39-0.177l0.222-0.116l0.897,0.688
	c0.418-0.304,0.786-0.67,1.092-1.087l-0.589-1.064l0.088-0.185l0,0c0.073-0.15,0.136-0.304,0.19-0.462l0.071-0.21L380,178.9v-0.001
	c0.081-0.515,0.083-1.039,0.003-1.554l-1.178-0.358l-0.067-0.187h0.002c-0.048-0.129-0.1-0.254-0.16-0.379l-0.085-0.18l0.581-1.084
	h-0.001c-0.31-0.424-0.686-0.796-1.113-1.103l-1,0.631l-0.197-0.096c-0.084-0.042-0.172-0.08-0.261-0.116l-0.2-0.081l-0.217-1.169
	c-0.691-0.144-1.403-0.144-2.093,0.002l-0.196,1.165l-0.206,0.081h0c-0.114,0.045-0.225,0.096-0.335,0.153l-0.195,0.1l-1.015-0.612
	c-0.406,0.305-0.763,0.667-1.059,1.079l0.644,0.981l-0.102,0.202h0c-0.081,0.161-0.148,0.326-0.205,0.496l-0.071,0.209l-1.149,0.258
	c-0.04,0.257-0.061,0.516-0.061,0.776c0,0.263,0.021,0.526,0.062,0.786l1.155,0.272l0.071,0.207c0.044,0.13,0.095,0.259,0.153,0.384
	l0.083,0.18l-0.592,1.079h0.001c0.308,0.428,0.68,0.805,1.104,1.119l0.962-0.646l0.207,0.106c0.111,0.058,0.228,0.111,0.346,0.158
	l0.206,0.081l0.201,1.165v-0.001c0.678,0.143,1.378,0.144,2.057,0.004L376.286,181.845z M372.376,178.117
	c0-0.713,0.283-1.399,0.788-1.903c0.504-0.505,1.189-0.789,1.904-0.789c0.713,0,1.398,0.284,1.903,0.789
	c0.505,0.504,0.789,1.19,0.789,1.903c0,0.714-0.284,1.399-0.789,1.904c-0.505,0.504-1.189,0.788-1.903,0.788
	c-0.715,0-1.399-0.284-1.904-0.788C372.659,179.516,372.376,178.831,372.376,178.117z M402.049,171.367h-42.85
	c0.028,0.006,0.056,0.008,0.084,0.013l0.249,0.051l0.594,2.646c0.284,0.102,0.564,0.217,0.836,0.345l2.251-1.477l0.215,0.139h0.001
	c1.39,0.898,2.582,2.068,3.507,3.439l0.14,0.208l-1.405,2.335c0.07,0.145,0.137,0.292,0.201,0.44l2.677,0.451l0.065,0.245v0
	c0.55,2.066,0.553,4.239,0.009,6.308l-0.063,0.241l-2.693,0.503c-0.036,0.085-0.074,0.168-0.113,0.253l1.452,2.305l-0.136,0.21h0
	c-0.913,1.414-2.109,2.624-3.512,3.556l-0.196,0.13l-2.501-1.337c-0.191,0.087-0.385,0.168-0.583,0.243l-0.826,2.718l-0.23,0.048
	c-0.234,0.046-0.506,0.089-0.792,0.126h44.539v-23.223c0-0.507-0.412-0.918-0.917-0.918L402.049,171.367z M390.24,178.452h2.624
	v0.787l-2.624,0V178.452z M390.24,181.076h5.25v0.787h-5.25V181.076z M390.24,183.7h3.937v0.787h-3.937V183.7z M390.24,186.324
	h2.624v0.787h-2.624V186.324z M373.334,183.642l-0.213-1.238l-1.021,0.685l-0.219-0.144c-0.668-0.442-1.238-1.016-1.676-1.688
	l-0.127-0.197l0.633-1.153l-0.027-0.068l-1.232-0.291l-0.05-0.246c-0.163-0.781-0.164-1.589-0.001-2.372l0.051-0.248l1.225-0.275
	c0.022-0.06,0.048-0.118,0.073-0.178l-0.683-1.043l0.139-0.215c0.424-0.655,0.978-1.219,1.625-1.655l0.208-0.141l1.077,0.649
	l0.208-1.236l0.244-0.064c0.977-0.259,2.002-0.26,2.979-0.005l0.242,0.063l0.216,1.159l0.99-0.625l0.21,0.137l0,0
	c0.669,0.43,1.241,0.996,1.681,1.658l0.13,0.195l-0.62,1.158l0.034,0.082l1.261,0.382l0.046,0.23v0
	c0.156,0.775,0.153,1.574-0.009,2.348l-0.052,0.25l-1.224,0.269c-0.02,0.05-0.041,0.101-0.062,0.152l0.63,1.136l-0.133,0.2
	c-0.441,0.664-1.014,1.229-1.683,1.661l-0.233,0.151l-0.95-0.729l-0.033,0.014l-0.219,1.238l-0.244,0.064
	c-0.966,0.249-1.979,0.247-2.943-0.007L373.334,183.642z M383.028,190.178l-0.053,0.248l-0.939,0.206l-0.012,0.028l0.483,0.871
	l-0.132,0.2c-0.341,0.515-0.786,0.953-1.304,1.286l-0.233,0.152l-0.669-0.514l-0.154,0.87l-0.244,0.064v0
	c-0.748,0.194-1.533,0.193-2.28-0.005l-0.244-0.064l-0.146-0.855l-0.707,0.475l-0.218-0.145c-0.518-0.341-0.96-0.787-1.296-1.309
	l-0.127-0.198l0.469-0.854l-0.915-0.214l-0.051-0.245c-0.126-0.606-0.126-1.232,0-1.838l0.051-0.249l0.939-0.212l0.018-0.042
	l-0.524-0.8l0.139-0.216v0c0.329-0.508,0.758-0.944,1.259-1.283l0.208-0.14l0.749,0.451l0.145-0.859l0.245-0.065
	c0.756-0.2,1.55-0.201,2.308-0.003l0.241,0.063l0.149,0.801l0.685-0.432l0.21,0.137l0-0.001c0.518,0.334,0.959,0.771,1.299,1.285
	l0.131,0.195l-0.467,0.873l0.948,0.289l0.048,0.23C383.156,188.959,383.153,189.579,383.028,190.178L383.028,190.178z
	 M388.93,176.615h-2.625v-0.788h2.624L388.93,176.615z M394.178,189.735h-3.936v-0.787h3.936V189.735z M400.738,189.735h-5.248
	v-0.787h5.247L400.738,189.735z M400.738,187.111h-6.561v-0.787h6.56L400.738,187.111z M400.738,184.487h-5.248v-0.788h5.247
	L400.738,184.487z M400.738,181.863h-3.936v-0.787h3.936V181.863z M400.738,179.239l-6.561,0v-0.788l6.56,0L400.738,179.239z
	 M400.738,176.616l-10.498-0.001v-0.787h10.497L400.738,176.616z M358.835,194.652c-0.766,0.127-1.537,0.202-2.313,0.223v-5.183
	c0.082,0.002,0.165,0.003,0.248,0.003l0,0.001c2.25-0.008,4.327-1.212,5.45-3.163c1.123-1.95,1.123-4.351,0-6.301
	c-1.124-1.951-3.2-3.155-5.45-3.163c-0.083,0-0.166,0.006-0.248,0.008l0-4.793c0-0.129,0.029-0.257,0.083-0.375h0.173
	c0.703,0,1.405,0.064,2.097,0.192l0.579,2.577l0.211,0.071c0.394,0.132,0.779,0.29,1.151,0.474l0.202,0.101l2.194-1.439h0.001
	c1.141,0.774,2.133,1.747,2.928,2.873l-1.369,2.275l0.099,0.195c0.13,0.253,0.249,0.512,0.354,0.776l0.083,0.205l2.607,0.441v-0.001
	c0.433,1.781,0.436,3.639,0.007,5.42l-2.623,0.491l-0.08,0.2c-0.083,0.205-0.173,0.405-0.269,0.603l-0.096,0.196l1.414,2.245h0
	c-0.792,1.17-1.793,2.184-2.955,2.988l-2.432-1.3l-0.181,0.086v0c-0.286,0.137-0.579,0.259-0.877,0.366l-0.187,0.066
	L358.835,194.652z"/>
<circle opacity="0.8" fill="#613A96" cx="378.073" cy="71.676" r="54.5"/>
<circle opacity="0.8" fill="none" stroke="#613A96" stroke-width="4" stroke-miterlimit="10" cx="380.125" cy="189.341" r="33.5"/>
<linearGradient id="SVGID_1_" gradientUnits="userSpaceOnUse" x1="62.5166" y1="93.8975" x2="136.5166" y2="93.8975">
	<stop  offset="0" style="stop-color:#2484C6"/>
	<stop  offset="1" style="stop-color:#613A96"/>
</linearGradient>
<circle opacity="0.7" fill="none" stroke="url(#SVGID_1_)" stroke-width="7" stroke-miterlimit="10" cx="99.517" cy="93.897" r="33.5"/>
<circle opacity="0.5" fill="none" stroke="#613A96" stroke-miterlimit="10" cx="416.708" cy="264.698" r="25.865"/>
<circle opacity="0.5" fill="none" stroke="#613A96" stroke-miterlimit="10" cx="345.989" cy="267.456" r="25.865"/>
<circle opacity="0.5" fill="none" stroke="#613A96" stroke-miterlimit="10" cx="292.208" cy="221.045" r="25.865"/>
<circle opacity="0.5" fill="none" stroke="#613A96" stroke-miterlimit="10" cx="275.221" cy="163.477" r="25.865"/>
<circle opacity="0.5" fill="none" stroke="#613A96" stroke-miterlimit="10" cx="492.917" cy="163.477" r="25.865"/>
<circle opacity="0.5" fill="none" stroke="#613A96" stroke-miterlimit="10" cx="475.134" cy="223.157" r="25.865"/>
<circle opacity="0.8" fill="none" stroke="#393E98" stroke-width="3" stroke-miterlimit="10" cx="325.21" cy="456.205" r="33.5"/>
<circle opacity="0.8" fill="none" stroke="#393E98" stroke-width="3" stroke-miterlimit="10" cx="269.737" cy="314.77" r="33.5"/>
<circle opacity="0.8" fill="none" stroke="#393E98" stroke-width="3" stroke-miterlimit="10" cx="204.528" cy="546.115" r="33.5"/>
<circle opacity="0.8" fill="none" stroke="#393E98" stroke-width="3" stroke-miterlimit="10" cx="84.039" cy="460.143" r="33.5"/>
<circle opacity="0.8" fill="none" stroke="#393E98" stroke-width="3" stroke-miterlimit="10" cx="129.548" cy="320.256" r="33.5"/>
<circle opacity="0.5" fill="none" stroke="#393E98" stroke-miterlimit="10" cx="66.694" cy="256.673" r="25.864"/>
<circle opacity="0.5" fill="none" stroke="#393E98" stroke-miterlimit="10" cx="406.232" cy="457.021" r="25.864"/>
<circle opacity="0.5" fill="none" stroke="#393E98" stroke-miterlimit="10" cx="132.74" cy="242.673" r="25.864"/>
<circle opacity="0.5" fill="none" stroke="#393E98" stroke-miterlimit="10" cx="121.912" cy="557.396" r="25.864"/>
<circle opacity="0.5" fill="none" stroke="#393E98" stroke-miterlimit="10" cx="288.627" cy="519.508" r="25.864"/>
<circle opacity="0.5" fill="none" stroke="#393E98" stroke-miterlimit="10" cx="346.625" cy="347.291" r="25.864"/>
<circle opacity="0.8" fill="none" stroke="#32AF6E" stroke-width="3" stroke-miterlimit="10" cx="602.592" cy="287.917" r="33.5"/>
<circle opacity="0.8" fill="none" stroke="#32AF6E" stroke-width="3" stroke-miterlimit="10" cx="592.666" cy="498.936" r="33.5"/>
<circle opacity="0.5" fill="none" stroke="#32AF6E" stroke-miterlimit="10" cx="506.33" cy="461.955" r="25.865"/>
<circle opacity="0.5" fill="none" stroke="#32AF6E" stroke-miterlimit="10" cx="514.888" cy="525.328" r="25.865"/>
<circle opacity="0.8" fill="#32AF6E" cx="678.967" cy="423.1" r="54.5"/>
<circle opacity="0.8" fill="#393E98" cx="203.765" cy="418.531" r="54.5"/>
<g>
	<path fill="#FFFFFF" d="M212.493,407.246l2.049,0.035l5.57-5.57l0.271-2.359c-4.418-3.936-10.251-6.334-16.625-6.334
		c-11.54,0-21.28,7.852-24.163,18.488c0.607-0.424,1.908-0.105,1.908-0.105l11.13-1.83c0,0,0.571-0.947,0.862-0.9
		c2.631-2.891,6.359-4.539,10.27-4.537c3.3,0.008,6.34,1.174,8.729,3.102V407.246z"/>
	<path fill="#FFFFFF" d="M227.935,411.527c-1.293-4.77-3.958-8.98-7.555-12.176l-7.887,7.887c3.16,2.551,5.187,6.451,5.187,10.82
		v1.391c3.837,0,6.954,3.125,6.954,6.955c0,3.836-3.124,6.953-6.954,6.953h-13.908l-1.392,1.4v8.346l1.392,1.385h13.908
		c9.981-0.014,18.071-8.102,18.085-18.084c-0.007-6.154-3.1-11.6-7.83-14.875V411.527z"/>
	<path fill="#FFFFFF" d="M189.85,444.498h13.899v-11.141H189.85c-0.987,0-1.964-0.211-2.862-0.621l-2.007,0.615l-5.569,5.57
		l-0.488,1.879c3.139,2.395,6.979,3.691,10.926,3.689L189.85,444.498z"/>
	<path fill="#FFFFFF" d="M189.85,408.328c-9.981,0.014-18.071,8.102-18.085,18.084c0,5.873,2.813,11.096,7.166,14.402l8.064-8.063
		c-2.494-1.125-4.098-3.605-4.1-6.34c0-3.838,3.124-6.953,6.954-6.953c2.819,0,5.244,1.699,6.34,4.1l8.063-8.064
		C200.946,411.141,195.724,408.328,189.85,408.328L189.85,408.328z"/>
</g>
<g>
	<path fill="#FFFFFF" stroke="#00A14B" stroke-width="0.5" stroke-miterlimit="10" d="M692.209,449.584h19.863L680.291,423.1
		C679.855,432.721,684.09,442.131,692.209,449.584"/>
	<path fill="#FFFFFF" stroke="#00A14B" stroke-width="0.5" stroke-miterlimit="10" d="M652.482,436.342v19.863l26.484-31.781
		c-0.451-0.02-0.9-0.029-1.352-0.029C668.471,424.395,659.586,428.604,652.482,436.342"/>
	<path fill="#FFFFFF" stroke="#00A14B" stroke-width="0.5" stroke-miterlimit="10" d="M645.861,396.615l31.781,26.484
		c0.437-9.619-3.799-19.029-11.918-26.484H645.861z"/>
	<path fill="#FFFFFF" stroke="#00A14B" stroke-width="0.5" stroke-miterlimit="10" d="M705.451,389.994l-26.484,31.781
		c9.62,0.438,19.03-3.799,26.484-11.918V389.994z"/>
	<path fill="#FFFFFF" stroke="#00A14B" stroke-width="0.5" stroke-miterlimit="10" d="M678.967,423.1
		c-2.969,7.695-2.521,15.541,1.324,23.174c3.973,1.986,7.283,3.311,11.918,3.311c-8.119-7.453-12.354-16.863-11.918-26.484H678.967z
		"/>
	<path fill="#FFFFFF" stroke="#00A14B" stroke-width="0.5" stroke-miterlimit="10" d="M655.793,424.424
		c-1.985,3.973-3.311,7.283-3.311,11.918c7.454-8.119,16.865-12.354,26.484-11.918V423.1c-3.348-1.291-6.723-1.936-10.097-1.936
		C664.487,421.164,660.106,422.252,655.793,424.424"/>
	<path fill="#FFFFFF" stroke="#00A14B" stroke-width="0.5" stroke-miterlimit="10" d="M677.643,423.1h1.324
		c2.969-7.695,2.521-15.541-1.324-23.174c-3.973-1.986-7.283-3.311-11.918-3.311C673.844,404.07,678.079,413.48,677.643,423.1"/>
	<path fill="#FFFFFF" stroke="#00A14B" stroke-width="0.5" stroke-miterlimit="10" d="M678.967,421.775v1.324
		c7.695,2.969,15.541,2.521,23.174-1.324c1.986-3.973,3.311-7.283,3.311-11.918C697.997,417.977,688.587,422.213,678.967,421.775"/>
	<path fill="#FFFFFF" stroke="#00A14B" stroke-width="0.5" stroke-miterlimit="10" d="M664.4,433.031l15.891,13.242
		c-3.845-7.633-4.293-15.479-1.324-23.174c-0.459-0.152-0.998-0.227-1.592-0.227C672.822,422.873,664.986,427.176,664.4,433.031"/>
	<path fill="#FFFFFF" stroke="#00A14B" stroke-width="0.5" stroke-miterlimit="10" d="M655.793,424.424
		c7.634-3.844,15.479-4.293,23.174-1.324c1.324-3.973-3.311-13.904-9.932-14.566L655.793,424.424z"/>
	<path fill="#FFFFFF" stroke="#00A14B" stroke-width="0.5" stroke-miterlimit="10" d="M678.967,423.1
		c3.973,1.324,13.904-3.311,14.566-9.932l-15.891-13.242C681.487,407.559,681.936,415.404,678.967,423.1"/>
	<path fill="#FFFFFF" stroke="#00A14B" stroke-width="0.5" stroke-miterlimit="10" d="M678.967,423.1
		c-1.324,3.973,3.311,13.904,9.932,14.566l13.242-15.891C694.508,425.621,686.662,426.068,678.967,423.1"/>
	<path fill="#FFFFFF" stroke="#00A14B" stroke-width="0.5" stroke-miterlimit="10" d="M678.967,421.445
		c0.914,0,1.655,0.74,1.655,1.654s-0.741,1.656-1.655,1.656s-1.654-0.742-1.654-1.656S678.053,421.445,678.967,421.445"/>
</g>
<g transform="matrix(.826767 0 0 .826767 8.416322 51.138164)">
	<path fill="#FFFFFF" d="M457.671,65.601V41.172l-21.16-12.221v24.429L457.671,65.601z M457.671,38.501l-21.16-12.22V1.841
		l21.16,12.22V38.501z"/>
	<path fill="#FFFFFF" d="M481.172,26.271V1.831l-21.169,12.22v24.439L481.172,26.271z"/>
	<g>
		<path fill="#FFFFFF" d="M434.192,24.852V0.412l-21.16-12.221v24.44L434.192,24.852z"/>
		<path fill="#FFFFFF" d="M472.211,49.561"/>
		<path fill="#FFFFFF" d="M436.511,28.951"/>
	</g>
</g>
<rect x="585.092" y="281.544" fill="none" width="41.563" height="14"/>
<text transform="matrix(1 0 0 1 585.0918 291.853)" font-family="'CenturyGothic'" font-size="12">DAGS</text>
<rect x="352.401" y="184.895" fill="none" width="59.807" height="14"/>
<text transform="matrix(1 0 0 1 352.4009 195.2026)" font-family="'CenturyGothic'" font-size="12">MODULES</text>
<rect x="102.197" y="312.277" fill="none" width="59.808" height="14"/>
<text transform="matrix(1 0 0 1 102.1973 322.584)" font-family="'CenturyGothic'" font-size="12">STORAGE</text>
<rect x="111.591" y="235.673" fill="none" width="47.564" height="14"/>
<text transform="matrix(1 0 0 1 111.5913 245.9814)" font-family="'CenturyGothic'" font-size="12">STAGIN</text>
<g>
	<rect x="315.823" y="342.957" fill="none" width="61.604" height="14"/>
	<text transform="matrix(1 0 0 1 324.5845 350.6875)" font-family="'CenturyGothic'" font-size="9">POSTGRES</text>
</g>
<rect x="53.414" y="250.132" fill="none" width="59.808" height="14"/>
<text transform="matrix(1 0 0 1 53.4141 260.4404)" font-family="'CenturyGothic'" font-size="12">RAW</text>
<g>
	<rect x="272.29" y="216.157" fill="none" width="43.182" height="14"/>
	<text transform="matrix(1 0 0 1 272.2896 223.8877)" font-family="'CenturyGothic'" font-size="9">STORAGE</text>
</g>
<g>
	<rect x="180.158" y="449.205" fill="none" width="55.706" height="14"/>
	<text transform="matrix(1 0 0 1 180.1582 456.9355)" fill="#FDFDFE" font-family="'CenturyGothic'" font-size="9">PROJECT ID</text>
</g>
<g>
	<rect x="361.002" y="105.375" fill="none" width="55.706" height="14"/>
	<text transform="matrix(1 0 0 1 361.002 113.1064)" fill="#FDFDFE" font-family="'CenturyGothic'" font-size="9">MAIN.TF</text>
</g>
<g>
	<rect x="662.588" y="460.143" fill="none" width="55.706" height="14"/>
	<text transform="matrix(1 0 0 1 662.5879 467.8721)" fill="#FDFDFE" font-family="'CenturyGothic'" font-size="9">AIRFLOW</text>
</g>
<rect x="461.704" y="216.157" fill="none" width="31.212" height="14"/>
<text transform="matrix(1 0 0 1 461.7041 226.4648)" font-family="'CenturyGothic'" font-size="12">VPC</text>
<rect x="264.42" y="159.18" fill="none" width="30.403" height="14"/>
<text transform="matrix(1 0 0 1 264.4199 169.4883)" font-family="'CenturyGothic'" font-size="12">GKE</text>
<rect x="480.856" y="159.234" fill="none" width="29.904" height="14"/>
<text transform="matrix(1 0 0 1 480.8564 169.542)" font-family="'CenturyGothic'" font-size="12">NFS</text>
<g>
	<rect x="385.839" y="453.141" fill="none" width="92.516" height="14.002"/>
	<text transform="matrix(1 0 0 1 385.8394 459.1543)" font-family="'CenturyGothic'" font-size="7">CREDENTIALS</text>
</g>
<rect x="88.369" y="87.563" fill="none" width="25.127" height="14"/>
<text transform="matrix(1 0 0 1 88.3691 97.8711)" font-family="'CenturyGothic'" font-size="12">SDK</text>
<linearGradient id="SVGID_2_" gradientUnits="userSpaceOnUse" x1="346.8623" y1="558.6953" x2="420.8623" y2="558.6953">
	<stop  offset="0.3011" style="stop-color:#393E98"/>
	<stop  offset="0.5217" style="stop-color:#32788D"/>
	<stop  offset="0.6915" style="stop-color:#319F7B"/>
	<stop  offset="0.7688" style="stop-color:#32AF6E"/>
</linearGradient>
<circle opacity="0.7" fill="none" stroke="url(#SVGID_2_)" stroke-width="7" stroke-miterlimit="10" cx="383.862" cy="558.695" r="33.5"/>
<g opacity="0.7">
	<linearGradient id="SVGID_3_" gradientUnits="userSpaceOnUse" x1="611.4033" y1="92.1133" x2="683.4033" y2="92.1133">
		<stop  offset="0.1075" style="stop-color:#32AF6E"/>
		<stop  offset="1" style="stop-color:#2484C6;stop-opacity:0"/>
	</linearGradient>
	
		<circle fill="none" stroke="url(#SVGID_3_)" stroke-width="5" stroke-miterlimit="10" stroke-dasharray="5.8453,5.8453" cx="647.403" cy="92.113" r="33.5"/>
</g>
<rect x="359.919" y="552.361" fill="none" width="61.127" height="14"/>
<text transform="matrix(1 0 0 1 359.9194 562.668)" font-family="'CenturyGothic'" font-size="12">KUBECTL</text>
<g>
	<rect x="97.237" y="553.793" fill="none" width="54.351" height="14.438"/>
	<text transform="matrix(1 0 0 1 97.2373 561.5234)" font-family="'CenturyGothic'" font-size="9">DATAPROC</text>
</g>
<g>
	<rect x="271.177" y="512.289" fill="none" width="34.9" height="14.438"/>
	<text transform="matrix(1 0 0 1 276.6323 522.5957)" font-family="'CenturyGothic'" font-size="12">GKE</text>
</g>
<circle opacity="0.5" fill="none" stroke="#393E98" stroke-miterlimit="10" cx="52.531" cy="555.266" r="17.864"/>
<g>
	<rect x="38.841" y="550.178" fill="none" width="54.351" height="14.438"/>
	<text transform="matrix(1 0 0 1 38.8408 557.9082)" font-family="'CenturyGothic'" font-size="9">SPARK</text>
</g>
<rect x="232.819" y="304.839" fill="none" width="73.835" height="28.875"/>
<text transform="matrix(1 0 0 1 248.4795 315.1484)"><tspan x="0" y="0" font-family="'CenturyGothic'" font-size="12">CLOUD </tspan><tspan x="10.271" y="14.4" font-family="'CenturyGothic'" font-size="12">SQL</tspan></text>
<g>
	<rect x="610.485" y="87.125" fill="none" width="73.835" height="28.875"/>
	<text transform="matrix(1 0 0 1 621.2051 94.8564)" font-family="'CenturyGothic'" font-size="9">REPOSITORY</text>
</g>
<rect x="167.61" y="539.344" fill="none" width="73.836" height="28.875"/>
<text transform="matrix(1 0 0 1 177.5605 549.6523)" font-family="'CenturyGothic'" font-size="12">CLUSTERS</text>
<g>
	<rect x="309.072" y="259.942" fill="none" width="73.835" height="28.875"/>
	<text transform="matrix(1 0 0 1 330.0464 267.6724)"><tspan x="0" y="0" font-family="'CenturyGothic'" font-size="9">CLOUD </tspan><tspan x="7.704" y="10.8" font-family="'CenturyGothic'" font-size="9">SQL</tspan></text>
</g>
<g>
	<rect x="496.379" y="516.014" fill="none" width="48.633" height="24.447"/>
	<text transform="matrix(1 0 0 1 496.3789 523.7441)"><tspan x="0" y="0" font-family="'CenturyGothic'" font-size="9">GOOGLE </tspan><tspan x="0" y="10.8" font-family="'CenturyGothic'" font-size="9">CLOUD</tspan></text>
</g>
<g>
	<rect x="558.442" y="203.462" fill="none" width="21.299" height="9.057"/>
	<text transform="matrix(1 0 0 1 563.249 211.1934)" font-family="'CenturyGothic'" font-size="9">D1</text>
</g>
<g>
	<rect x="507.7" y="283.388" fill="none" width="21.299" height="9.057"/>
	<text transform="matrix(1 0 0 1 512.5068 291.1191)" font-family="'CenturyGothic'" font-size="9">D2</text>
</g>
<g>
	<rect x="570.1" y="362.619" fill="none" width="21.299" height="9.057"/>
	<text transform="matrix(1 0 0 1 574.9063 370.3496)" font-family="'CenturyGothic'" font-size="9">D3</text>
</g>
<g>
	<rect x="667.591" y="316.889" fill="none" width="21.299" height="9.057"/>
	<text transform="matrix(1 0 0 1 672.3975 324.6191)" font-family="'CenturyGothic'" font-size="9">D4</text>
</g>
<circle opacity="0.5" fill="none" stroke="#32AF6E" stroke-miterlimit="10" cx="569.092" cy="207.991" r="25.864"/>
<circle opacity="0.5" fill="none" stroke="#32AF6E" stroke-miterlimit="10" cx="518.35" cy="287.917" r="25.865"/>
<circle opacity="0.5" fill="none" stroke="#32AF6E" stroke-miterlimit="10" cx="580.002" cy="365.521" r="25.864"/>
<circle opacity="0.5" fill="none" stroke="#32AF6E" stroke-miterlimit="10" cx="678.241" cy="321.418" r="25.865"/>
<g>
	<rect x="482.014" y="453.568" fill="none" width="48.633" height="29.283"/>
	<text transform="matrix(1 0 0 1 484.2891 461.2988)"><tspan x="0" y="0" font-family="'CenturyGothic'" font-size="9">POSTGRES</tspan><tspan x="7.813" y="10.8" font-family="'CenturyGothic'" font-size="9">CONN</tspan></text>
</g>
<rect x="54.136" y="456.205" fill="none" width="59.808" height="14"/>
<text transform="matrix(1 0 0 1 54.1353 466.5117)" font-family="'CenturyGothic'" font-size="12">BIGQUERY</text>
<g>
	<rect x="380.125" y="255.149" fill="none" width="73.166" height="24.613"/>
	<text transform="matrix(1 0 0 1 399.0742 262.8799)"><tspan x="0" y="0" font-family="'CenturyGothic'" font-size="9">SERVICE</tspan><tspan x="-6.36" y="10.8" font-family="'CenturyGothic'" font-size="9"> ACCOUNT</tspan></text>
</g>
<g>
	<rect x="288.627" y="444.715" fill="none" width="73.166" height="24.613"/>
	<text transform="matrix(1 0 0 1 307.5767 452.4453)"><tspan x="0" y="0" font-family="'CenturyGothic'" font-size="9">SERVICE</tspan><tspan x="-6.361" y="10.8" font-family="'CenturyGothic'" font-size="9"> ACCOUNT</tspan></text>
</g>
<rect x="559.166" y="495.936" fill="none" width="66.101" height="14"/>
<text transform="matrix(1 0 0 1 559.166 503.665)" font-family="'CenturyGothic'" font-size="9">CONNECTIONS</text>
<g opacity="0.5">
	<g>
		<path fill="none" stroke="#613A96" stroke-miterlimit="10" d="M319.506,209.676c3.978-3.448,11.864-8.71,22.309-7.927"/>
		<g>
			<g>
				<circle fill="#FFFFFF" cx="319.692" cy="209.561" r="3.76"/>
				<path fill="#613A96" d="M322.651,212.625c1.689-1.631,1.737-4.333,0.106-6.023c-1.632-1.689-4.333-1.737-6.023-0.106
					c-1.69,1.631-1.737,4.333-0.106,6.023S320.962,214.257,322.651,212.625S320.962,214.257,322.651,212.625z M317.429,207.215
					c1.294-1.249,3.361-1.212,4.609,0.082s1.212,3.36-0.082,4.609c-1.293,1.249-3.359,1.212-4.608-0.081
					C316.099,210.531,316.136,208.464,317.429,207.215C318.723,205.967,316.136,208.464,317.429,207.215z"/>
			</g>
		</g>
		<g>
			<g>
				<polygon fill="#613A96" points="336,206.73 341.114,202.01 337.827,195.875 349.747,203.462 				"/>
				<g>
					<polygon fill="#B8A9D2" points="337.736,205.804 348.452,203.245 341.736,202.114 					"/>
					<polygon fill="#927AB8" points="339.163,197.324 348.452,203.245 341.736,202.114 					"/>
				</g>
			</g>
		</g>
	</g>
</g>
<g opacity="0.5">
	<g>
		<path fill="none" stroke="#613A96" stroke-miterlimit="10" d="M304.965,160.643c8.722-1.483,29.672-3.741,40.875,6.138"/>
		<g>
			<g>
				<circle fill="#FFFFFF" cx="305.184" cy="160.636" r="3.76"/>
				<path fill="#613A96" d="M305.97,164.823c2.309-0.434,3.834-2.665,3.4-4.973c-0.434-2.308-2.664-3.833-4.973-3.4
					c-2.309,0.433-3.834,2.665-3.4,4.973S303.661,165.256,305.97,164.823S303.661,165.256,305.97,164.823z M304.582,157.432
					c1.767-0.332,3.474,0.835,3.806,2.602c0.332,1.767-0.836,3.474-2.603,3.806s-3.474-0.835-3.806-2.602
					S302.815,157.764,304.582,157.432C306.349,157.101,302.815,157.764,304.582,157.432z"/>
			</g>
		</g>
		<g>
			<g>
				<g>
					<polygon fill="#613A96" points="338.058,167.021 345.007,166.626 346.367,159.8 350.748,173.234 					"/>
					<polygon fill="#927AB8" points="339.998,167.425 349.894,172.25 345.433,167.117 					"/>
					<polygon fill="#B8A9D2" points="346.471,161.766 349.894,172.25 345.421,167.103 					"/>
				</g>
			</g>
		</g>
	</g>
</g>
<g opacity="0.5">
	<g>
		<path fill="none" stroke="#613A96" stroke-miterlimit="10" d="M361.892,242.488c2.68-2.275,6.396-6.131,8.662-11.457"/>
		<g>
			<g>
				<circle fill="#FFFFFF" cx="362.041" cy="242.33" r="3.76"/>
				<path fill="#613A96" d="M364.612,245.726c1.872-1.417,2.242-4.095,0.825-5.967s-4.095-2.243-5.968-0.826
					c-1.872,1.417-2.242,4.095-0.825,5.967S362.739,247.144,364.612,245.726C366.484,244.309,362.739,247.144,364.612,245.726z
					 M360.073,239.73c1.434-1.085,3.482-0.802,4.566,0.632c1.086,1.434,0.803,3.481-0.631,4.566s-3.482,0.802-4.566-0.632
					C358.356,242.863,358.64,240.815,360.073,239.73S358.64,240.815,360.073,239.73z"/>
			</g>
		</g>
		<g>
			<g>
				<polygon fill="#613A96" points="373.974,237.208 369.945,231.533 363.44,234.009 372.489,223.157 				"/>
				<g>
					<polygon fill="#B8A9D2" points="373.276,235.368 372.108,224.413 370.128,230.929 					"/>
					<polygon fill="#927AB8" points="365.049,232.869 372.108,224.413 370.128,230.929 					"/>
				</g>
			</g>
		</g>
	</g>
</g>
<g opacity="0.5">
	<g>
		<path fill="none" stroke="#613A96" stroke-miterlimit="10" d="M409.36,235.809c-0.461-3.242-1.879-7.791-6.009-11.169"/>
		<g>
			<g>
				<circle fill="#FFFFFF" cx="409.3" cy="235.599" r="3.76"/>
				<path fill="#613A96" d="M413.555,235.376c-0.123-2.346-2.131-4.154-4.477-4.032s-4.154,2.13-4.032,4.476
					c0.123,2.345,2.131,4.154,4.477,4.032S413.677,237.722,413.555,235.376C413.432,233.031,413.677,237.722,413.555,235.376z
					 M406.045,235.769c-0.094-1.795,1.29-3.332,3.085-3.425c1.796-0.094,3.332,1.29,3.426,3.085s-1.29,3.332-3.085,3.425
					C407.675,238.948,406.139,237.564,406.045,235.769S406.139,237.564,406.045,235.769z"/>
			</g>
		</g>
		<g>
			<g>
				<g>
					<polygon fill="#613A96" points="410.067,223 403.587,225.538 404.418,232.448 396.073,221.045 					"/>
					<polygon fill="#927AB8" points="408.098,223.219 397.191,221.714 403.028,225.204 					"/>
					<polygon fill="#B8A9D2" points="403.708,230.612 397.191,221.714 403.044,225.213 					"/>
				</g>
			</g>
		</g>
	</g>
</g>
<g opacity="0.5">
	<g>
		<path fill="none" stroke="#613A96" stroke-miterlimit="10" d="M450.406,206.478c-4.742-3.936-15.376-10.094-32.226-5.642"/>
		<g>
			<g>
				<circle fill="#FFFFFF" cx="450.23" cy="206.35" r="3.76"/>
				<path fill="#613A96" d="M453.194,203.29c-1.688-1.634-4.391-1.59-6.023,0.097c-1.634,1.688-1.591,4.39,0.097,6.023
					s4.39,1.59,6.023-0.097S454.881,204.923,453.194,203.29C451.507,201.656,454.881,204.923,453.194,203.29z M447.963,208.692
					c-1.291-1.251-1.324-3.318-0.074-4.609c1.251-1.292,3.318-1.325,4.609-0.075c1.292,1.251,1.325,3.318,0.074,4.609
					C451.322,209.909,449.255,209.942,447.963,208.692C446.672,207.441,449.255,209.942,447.963,208.692z"/>
			</g>
		</g>
		<g>
			<g>
				<g>
					<polygon fill="#613A96" points="421.256,194.297 418.85,200.828 424.568,204.794 410.502,203.462 					"/>
					<polygon fill="#927AB8" points="420.111,195.916 411.744,203.07 418.229,201.023 					"/>
					<polygon fill="#B8A9D2" points="422.725,204.106 411.744,203.07 418.247,201.018 					"/>
				</g>
			</g>
		</g>
	</g>
</g>
<g opacity="0.5">
	<g>
		<path fill="none" stroke="#613A96" stroke-miterlimit="10" d="M463.402,164.533c-8.59-3.563-30.59-9.537-46.944,13.455"/>
		<g>
			<g>
				<circle fill="#FFFFFF" cx="463.179" cy="164.502" r="3.76"/>
				<path fill="#613A96" d="M464.952,160.629c-2.136-0.978-4.669-0.036-5.646,2.1c-0.978,2.135-0.036,4.668,2.1,5.646
					c2.136,0.978,4.669,0.035,5.646-2.1S467.087,161.607,464.952,160.629C462.816,159.651,467.087,161.607,464.952,160.629z
					 M461.821,167.466c-1.635-0.749-2.355-2.687-1.606-4.321c0.748-1.634,2.687-2.355,4.32-1.607
					c1.635,0.749,2.355,2.687,1.607,4.321C465.395,167.494,463.456,168.214,461.821,167.466
					C460.187,166.718,463.456,168.214,461.821,167.466z"/>
			</g>
		</g>
		<g>
			<g>
				<polygon fill="#613A96" points="414.667,170.98 416.969,177.548 423.904,176.967 412.208,184.895 				"/>
				<g>
					<polygon fill="#B8A9D2" points="414.828,172.942 412.922,183.793 416.626,178.078 					"/>
					<polygon fill="#927AB8" points="422.044,177.619 412.922,183.793 416.626,178.078 					"/>
				</g>
			</g>
		</g>
	</g>
</g>
<g>
	<g>
		<path fill="none" stroke="#393E98" stroke-width="2" stroke-miterlimit="10" d="M207.905,357.068
			c0.31-0.551,0.633-1.135,0.968-1.744"/>
		<path fill="none" stroke="#393E98" stroke-width="2" stroke-miterlimit="10" stroke-dasharray="4.0257,4.0257" d="
			M210.771,351.775c15.406-29.473,45.878-104.668-19.838-142.462c-28.641-16.472-85.943-19.697-94.07-73.894"/>
		<path fill="none" stroke="#393E98" stroke-width="2" stroke-miterlimit="10" d="M96.587,133.415
			c-0.082-0.655-0.156-1.318-0.224-1.987"/>
		<g>
			<g>
				<g>
					<polygon fill="#393E98" points="215.07,355.557 208.171,356.467 205.558,350.016 203.765,364.031 					"/>
					<polygon fill="#7C78B9" points="213.239,356.316 204.421,362.906 207.843,357.029 					"/>
					<polygon fill="#AAA7D3" points="205.823,351.967 204.421,362.906 207.853,357.014 					"/>
				</g>
			</g>
		</g>
		<g>
			<g>
				<circle fill="#FFFFFF" cx="96.419" cy="131.641" r="3.76"/>
				<path fill="#393E98" d="M100.663,131.271c0.203,2.34-1.533,4.41-3.873,4.614c-2.34,0.204-4.41-1.533-4.615-3.873
					c-0.203-2.34,1.533-4.41,3.873-4.614S100.458,128.931,100.663,131.271C100.866,133.61,100.458,128.931,100.663,131.271z
					 M93.171,131.925c0.157,1.791,1.74,3.12,3.531,2.964c1.791-0.157,3.121-1.74,2.965-3.531c-0.157-1.791-1.74-3.12-3.531-2.964
					C94.345,128.55,93.015,130.134,93.171,131.925C93.328,133.716,93.015,130.134,93.171,131.925z"/>
			</g>
		</g>
	</g>
</g>
<path fill="none" stroke="#613A96" stroke-miterlimit="10" d="M380.125,155.841c0,0,7.614-13.854-2.052-29.665"/>
<g>
	<g>
		<path fill="none" stroke="#613A96" stroke-width="2" stroke-miterlimit="10" d="M320.066,80.95
			c-0.53-0.29-1.116-0.606-1.759-0.946"/>
		<path fill="none" stroke="#613A96" stroke-width="2" stroke-miterlimit="10" stroke-dasharray="3.9586,3.9586" d="M314.787,78.2
			c-24.97-12.417-99.263-41.733-172.069,4.619"/>
		<path fill="none" stroke="#613A96" stroke-width="2" stroke-miterlimit="10" d="M141.046,83.896
			c-0.558,0.364-1.115,0.732-1.672,1.105"/>
		<g>
			<g>
				<circle fill="#FFFFFF" cx="319.868" cy="80.86" r="3.76"/>
				<path fill="#613A96" d="M321.97,77.154c-2.043-1.159-4.648-0.439-5.807,1.604c-1.159,2.043-0.439,4.648,1.604,5.807
					s4.648,0.439,5.807-1.604S324.013,78.313,321.97,77.154S324.013,78.313,321.97,77.154z M318.26,83.695
					c-1.563-0.887-2.114-2.88-1.228-4.444s2.88-2.114,4.443-1.228c1.564,0.887,2.115,2.88,1.228,4.444
					C321.816,84.032,319.823,84.582,318.26,83.695C316.696,82.808,319.823,84.582,318.26,83.695z"/>
			</g>
		</g>
		<g>
			<g>
				<polygon fill="#613A96" points="140.316,77.737 139.941,84.687 146.575,86.792 132.74,89.664 				"/>
				<g>
					<polygon fill="#B8A9D2" points="139.718,79.612 133.819,88.917 139.423,85.045 					"/>
					<polygon fill="#927AB8" points="144.606,86.686 133.819,88.917 139.423,85.045 					"/>
				</g>
			</g>
		</g>
	</g>
</g>
<g>
	<g>
		<path fill="none" stroke="#393E98" stroke-miterlimit="10" d="M244.805,376.902c5.212-3.793,14.706-11.992,15.192-21.689"/>
		<g>
			<g>
				<circle fill="#FFFFFF" cx="244.972" cy="376.769" r="3.76"/>
				<path fill="#393E98" d="M247.362,380.295c1.943-1.318,2.454-3.973,1.137-5.916c-1.318-1.945-3.972-2.455-5.916-1.137
					c-1.944,1.316-2.455,3.971-1.137,5.916C242.763,381.102,245.417,381.611,247.362,380.295
					C249.306,378.977,245.417,381.611,247.362,380.295z M243.144,374.07c1.488-1.01,3.52-0.619,4.527,0.869s0.618,3.52-0.87,4.527
					s-3.519,0.619-4.527-0.869C241.265,377.107,241.655,375.078,243.144,374.07C244.632,373.061,241.655,375.078,243.144,374.07z"/>
			</g>
		</g>
		<g>
			<g>
				<g>
					<polygon fill="#393E98" points="265.378,359.498 259.378,355.973 254.46,360.898 258.265,347.291 					"/>
					<polygon fill="#7C78B9" points="263.987,358.086 258.431,348.582 259.295,355.328 					"/>
					<polygon fill="#AAA7D3" points="255.464,359.205 258.431,348.582 259.297,355.348 					"/>
				</g>
			</g>
		</g>
	</g>
</g>
<g>
	<g>
		<path fill="none" stroke="#393E98" stroke-miterlimit="10" d="M148.262,397.627c-7.722-5.59-26.489-20.709-30.183-38.006"/>
		<g>
			<g>
				<circle fill="#FFFFFF" cx="148.103" cy="397.477" r="3.76"/>
				<path fill="#393E98" d="M150.553,393.992c-1.921-1.352-4.584-0.887-5.935,1.035c-1.351,1.92-0.887,4.584,1.035,5.934
					c1.922,1.352,4.584,0.887,5.935-1.035S152.474,395.342,150.553,393.992C148.632,392.641,152.474,395.342,150.553,393.992z
					 M146.229,400.143c-1.472-1.033-1.826-3.07-0.792-4.541c1.033-1.471,3.07-1.826,4.541-0.791c1.471,1.033,1.826,3.07,0.793,4.541
					C149.735,400.822,147.699,401.178,146.229,400.143C144.757,399.109,147.699,401.178,146.229,400.143z"/>
			</g>
		</g>
		<g>
			<g>
				<g>
					<polygon fill="#393E98" points="124.487,363.834 118.534,360.227 113.551,365.084 117.539,351.529 					"/>
					<polygon fill="#7C78B9" points="123.116,362.402 117.687,352.824 118.46,359.58 					"/>
					<polygon fill="#AAA7D3" points="114.577,363.406 117.687,352.824 118.462,359.6 					"/>
				</g>
			</g>
		</g>
	</g>
</g>
<g>
	<g>
		<path fill="none" stroke="#393E98" stroke-miterlimit="10" d="M153.44,447.75c-3.926,4.289-13.059,10.646-30.098,4.928"/>
		<g>
			<g>
				<circle fill="#FFFFFF" cx="153.278" cy="447.898" r="3.76"/>
				<path fill="#393E98" d="M149.868,445.346c-1.407,1.879-1.023,4.555,0.857,5.963c1.879,1.408,4.555,1.023,5.963-0.857
					c1.407-1.879,1.023-4.555-0.857-5.963C153.952,443.08,151.276,443.465,149.868,445.346
					C148.461,447.225,151.276,443.465,149.868,445.346z M155.888,449.852c-1.078,1.439-3.124,1.734-4.563,0.656
					c-1.438-1.078-1.733-3.125-0.655-4.563c1.078-1.439,3.124-1.734,4.563-0.656C156.671,446.367,156.966,448.414,155.888,449.852
					C154.81,451.291,156.966,448.414,155.888,449.852z"/>
			</g>
		</g>
		<g>
			<g>
				<g>
					<polygon fill="#393E98" points="129.954,449.113 124.003,452.725 126.006,459.389 115.831,449.584 					"/>
					<polygon fill="#7C78B9" points="128.05,449.668 117.048,450.051 123.396,452.49 					"/>
					<polygon fill="#AAA7D3" points="124.991,457.703 117.048,450.051 123.413,452.498 					"/>
				</g>
			</g>
		</g>
	</g>
</g>
<g>
	<g>
		<path fill="none" stroke="#393E98" stroke-miterlimit="10" d="M206.513,475.998c4.842,5.766,13.511,18.98,3.928,31.066"/>
		<g>
			<g>
				<circle fill="#FFFFFF" cx="206.632" cy="476.183" r="3.76"/>
				<path fill="#393E98" d="M203.481,479.049c1.58,1.738,4.28,1.865,6.018,0.283c1.736-1.58,1.863-4.279,0.283-6.018
					c-1.58-1.736-4.281-1.863-6.018-0.283C202.028,474.613,201.9,477.313,203.481,479.049
					C205.062,480.787,201.9,477.313,203.481,479.049z M209.042,473.988c1.211,1.33,1.113,3.395-0.217,4.605
					c-1.329,1.209-3.395,1.111-4.604-0.217c-1.21-1.33-1.112-3.396,0.217-4.605C205.768,472.561,207.833,472.658,209.042,473.988
					C210.253,475.318,207.833,472.658,209.042,473.988z"/>
			</g>
		</g>
		<g>
			<g>
				<polygon fill="#393E98" points="209.565,499.414 210.589,506.299 217.509,507.035 204.528,512.615 				"/>
				<g>
					<polygon fill="#AAA7D3" points="209.354,501.371 205.437,511.668 210.151,506.754 					"/>
					<polygon fill="#7C78B9" points="215.56,507.324 205.437,511.668 210.151,506.754 					"/>
				</g>
			</g>
		</g>
	</g>
</g>
<g>
	<g>
		<path fill="none" stroke="#393E98" stroke-miterlimit="10" d="M262.31,423.355c7.053,0.271,21.49,1.861,28.221,10.074"/>
		<g>
			<g>
				<circle fill="#FFFFFF" cx="262.524" cy="423.381" r="3.76"/>
				<path fill="#393E98" d="M262.47,427.641c2.349,0.029,4.284-1.857,4.314-4.205c0.029-2.35-1.857-4.285-4.206-4.314
					s-4.284,1.857-4.313,4.205C258.235,425.676,260.122,427.609,262.47,427.641C264.818,427.67,260.122,427.609,262.47,427.641z
					 M262.565,420.121c1.798,0.023,3.241,1.504,3.219,3.301c-0.023,1.799-1.504,3.24-3.301,3.219
					c-1.799-0.023-3.242-1.504-3.219-3.301C259.288,421.541,260.768,420.098,262.565,420.121S260.768,420.098,262.565,420.121z"/>
			</g>
		</g>
		<g>
			<g>
				<g>
					<polygon fill="#393E98" points="282.707,432.166 289.592,433.184 292.304,426.773 293.88,440.814 					"/>
					<polygon fill="#7C78B9" points="284.525,432.955 293.242,439.68 289.911,433.75 					"/>
					<polygon fill="#AAA7D3" points="292.008,428.719 293.242,439.68 289.901,433.734 					"/>
				</g>
			</g>
		</g>
	</g>
</g>
<g opacity="0.5">
	<g>
		<path fill="none" stroke="#393E98" stroke-miterlimit="10" d="M96.952,325.064l-0.904-12.787c0,0-4.773-21.952-13.453-29.143"/>
		<g>
			<g>
				<circle fill="#FFFFFF" cx="96.937" cy="324.853" r="3.76"/>
				<path fill="#393E98" d="M101.187,324.553c-0.166-2.344-2.207-4.115-4.55-3.949s-4.114,2.207-3.948,4.549
					c0.165,2.344,2.206,4.115,4.549,3.949S101.352,326.895,101.187,324.553C101.021,322.209,101.352,326.895,101.187,324.553z
					 M93.686,325.082c-0.127-1.793,1.229-3.354,3.021-3.48c1.794-0.127,3.354,1.229,3.481,3.021s-1.229,3.355-3.021,3.482
					C95.374,328.23,93.812,326.877,93.686,325.082C93.559,323.289,93.812,326.877,93.686,325.082z"/>
			</g>
		</g>
		<g>
			<g>
				<g>
					<polygon fill="#393E98" points="88.835,281.007 82.831,284.528 84.733,291.223 74.707,281.267 					"/>
					<polygon fill="#7C78B9" points="86.923,281.533 75.916,281.752 82.228,284.286 					"/>
					<polygon fill="#AAA7D3" points="83.745,289.521 75.916,281.752 82.245,284.293 					"/>
				</g>
			</g>
		</g>
	</g>
</g>
<g opacity="0.5">
	<g>
		<path fill="none" stroke="#393E98" stroke-miterlimit="10" d="M163.896,308.701c4.337-8.979,13.059-32.459-8.434-42.376"/>
		<g>
			<g>
				<circle fill="#FFFFFF" cx="163.944" cy="308.484" r="3.76"/>
				<path fill="#393E98" d="M167.737,310.424c1.068-2.092,0.237-4.664-1.854-5.733c-2.092-1.069-4.663-0.237-5.732,1.854
					c-1.068,2.092-0.237,4.664,1.854,5.732C164.097,313.348,166.668,312.516,167.737,310.424
					C168.806,308.332,166.668,312.516,167.737,310.424z M161.042,307c0.818-1.601,2.785-2.237,4.387-1.418
					c1.6,0.818,2.236,2.786,1.418,4.387s-2.785,2.236-4.387,1.418C160.86,310.568,160.224,308.602,161.042,307
					C161.86,305.399,160.224,308.602,161.042,307z"/>
			</g>
		</g>
		<g>
			<g>
				<g>
					<polygon fill="#393E98" points="161.898,263.231 155.95,266.846 157.958,273.51 147.776,263.712 					"/>
					<polygon fill="#7C78B9" points="159.995,263.786 148.993,264.179 155.343,266.613 					"/>
					<polygon fill="#AAA7D3" points="156.942,271.824 148.993,264.179 155.36,266.62 					"/>
				</g>
			</g>
		</g>
	</g>
</g>
<path fill="none" stroke="#393E98" stroke-miterlimit="10" d="M352.933,539.041"/>
<g>
	<g>
		<path fill="none" stroke="#393E98" stroke-width="2" stroke-miterlimit="10" d="M307.777,541.072
			c0.142,0.281,0.292,0.578,0.45,0.887"/>
		<path fill="none" stroke="#393E98" stroke-width="2" stroke-miterlimit="10" stroke-dasharray="2.0539,2.0539" d="M309.188,543.77
			c5.536,10.152,18.648,29.617,40.877,37.111"/>
		<path fill="none" stroke="#393E98" stroke-width="2" stroke-miterlimit="10" d="M351.05,581.203
			c0.316,0.1,0.636,0.199,0.957,0.293"/>
		<g>
			<g>
				<circle fill="#FFFFFF" cx="307.911" cy="541.246" r="3.76"/>
				<path fill="#393E98" d="M304.066,543.08c1.011,2.121,3.56,3.021,5.679,2.012c2.119-1.012,3.021-3.561,2.01-5.68
					c-1.011-2.119-3.559-3.021-5.678-2.01C303.957,538.414,303.056,540.961,304.066,543.08
					C305.077,545.201,303.056,540.961,304.066,543.08z M310.853,539.844c0.774,1.621,0.084,3.57-1.538,4.346
					c-1.622,0.773-3.571,0.084-4.346-1.539s-0.084-3.572,1.538-4.346C308.13,537.529,310.079,538.221,310.853,539.844
					C311.627,541.465,310.079,538.221,310.853,539.844z"/>
			</g>
		</g>
		<g>
			<g>
				<g>
					<polygon fill="#393E98" points="345.964,585.473 351.423,581.154 348.613,574.787 359.919,583.262 					"/>
					<polygon fill="#7C78B9" points="347.784,584.688 358.655,582.949 352.054,581.313 					"/>
					<polygon fill="#AAA7D3" points="349.827,576.336 358.655,582.949 352.036,581.307 					"/>
				</g>
			</g>
		</g>
	</g>
</g>
<g opacity="0.5">
	<g>
		<path fill="none" stroke="#393E98" stroke-miterlimit="10" d="M167.931,549.904c-3.525-1.098-8.838-2.535-13.126-2.758"/>
		<g>
			<g>
				<circle fill="#FFFFFF" cx="167.724" cy="549.846" r="3.76"/>
				<path fill="#393E98" d="M169.072,545.805c-2.228-0.744-4.646,0.465-5.39,2.691c-0.742,2.229,0.465,4.646,2.693,5.391
					c2.228,0.742,4.645-0.465,5.389-2.693C172.509,548.967,171.3,546.549,169.072,545.805S171.3,546.549,169.072,545.805z
					 M166.692,552.938c-1.705-0.568-2.63-2.418-2.061-4.123c0.568-1.707,2.418-2.631,4.124-2.061c1.706,0.568,2.63,2.418,2.06,4.123
					C170.247,552.582,168.397,553.506,166.692,552.938S168.397,553.506,166.692,552.938z"/>
			</g>
		</g>
		<g>
			<g>
				<polygon fill="#393E98" points="158.073,541.518 155.987,548.156 161.892,551.842 147.776,551.193 				"/>
				<g>
					<polygon fill="#AAA7D3" points="157.028,543.186 149.008,550.738 155.396,548.375 					"/>
					<polygon fill="#7C78B9" points="160.011,551.25 149.008,550.738 155.396,548.375 					"/>
				</g>
			</g>
		</g>
	</g>
</g>
<g opacity="0.5">
	<g>
		<path fill="none" stroke="#393E98" stroke-miterlimit="10" d="M99.671,581.963c-7.404,2.146-19.221,1.998-29.789-13.896"/>
		<g>
			<g>
				<g>
					<polygon fill="#393E98" points="92.883,578.311 98.896,581.814 97.011,588.514 107.011,578.531 					"/>
					<polygon fill="#7C78B9" points="94.796,578.83 105.804,579.02 99.499,581.57 					"/>
					<polygon fill="#AAA7D3" points="97.995,586.811 105.804,579.02 99.481,581.578 					"/>
				</g>
			</g>
		</g>
		<g>
			<g>
				<circle fill="#FFFFFF" cx="70.013" cy="568.228" r="3.759"/>
				<path fill="#393E98" d="M73.624,565.969c1.246,1.992,0.639,4.625-1.353,5.871c-1.991,1.244-4.625,0.637-5.87-1.354
					c-1.246-1.992-0.639-4.625,1.354-5.871C69.745,563.371,72.38,563.979,73.624,565.969
					C74.87,567.961,72.38,563.979,73.624,565.969z M67.249,569.955c0.953,1.525,2.968,1.99,4.492,1.037s1.988-2.969,1.035-4.492
					c-0.953-1.525-2.967-1.99-4.492-1.037C66.761,566.416,66.296,568.432,67.249,569.955
					C68.202,571.48,66.296,568.432,67.249,569.955z"/>
			</g>
		</g>
	</g>
</g>
<g opacity="0.5">
	<g>
		<path fill="none" stroke="#393E98" stroke-miterlimit="10" d="M307.202,313.939c10.709-1.732,18.82,1.117,24.07,4.162"/>
		<g>
			<g>
				<circle fill="#FFFFFF" cx="307.413" cy="313.926" r="3.76"/>
				<path fill="#393E98" d="M308.255,318.102c2.303-0.465,3.798-2.717,3.333-5.018c-0.465-2.303-2.716-3.799-5.019-3.334
					s-3.797,2.717-3.332,5.02C303.702,317.07,305.953,318.566,308.255,318.102C310.558,317.637,305.953,318.566,308.255,318.102z
					 M306.768,310.73c1.763-0.355,3.484,0.789,3.84,2.551c0.356,1.762-0.788,3.484-2.55,3.84c-1.763,0.355-3.484-0.787-3.841-2.551
					C303.861,312.809,305.005,311.086,306.768,310.73S305.005,311.086,306.768,310.73z"/>
			</g>
		</g>
		<g>
			<g>
				<polygon fill="#393E98" points="323.903,320.066 330.546,317.988 330.201,311.037 337.726,322.996 				"/>
				<g>
					<polygon fill="#AAA7D3" points="325.87,319.971 336.649,322.246 331.063,318.35 					"/>
					<polygon fill="#7C78B9" points="330.789,312.918 336.649,322.246 331.063,318.35 					"/>
				</g>
			</g>
		</g>
	</g>
</g>
<g opacity="0.5">
	<g>
		<path fill="none" stroke="#393E98" stroke-miterlimit="10" d="M241.286,541.996c5.612,1.912,16.067,3.875,20.9-5.586"/>
		<g>
			<g>
				<circle fill="#FFFFFF" cx="241.492" cy="542.061" r="3.759"/>
				<path fill="#393E98" d="M239.893,546.008c2.177,0.883,4.666-0.172,5.548-2.348c0.881-2.178-0.173-4.666-2.35-5.549
					c-2.178-0.881-4.666,0.174-5.547,2.35C236.662,542.639,237.716,545.127,239.893,546.008
					C242.069,546.891,237.716,545.127,239.893,546.008z M242.716,539.039c1.666,0.674,2.473,2.578,1.797,4.244
					c-0.674,1.668-2.578,2.473-4.244,1.799c-1.667-0.676-2.473-2.578-1.799-4.246C239.146,539.17,241.049,538.363,242.716,539.039
					C244.382,539.713,241.049,538.363,242.716,539.039z"/>
			</g>
		</g>
		<g>
			<g>
				<g>
					<polygon fill="#393E98" points="265.139,542.734 261.425,536.85 254.796,538.969 264.42,528.623 					"/>
					<polygon fill="#7C78B9" points="264.552,540.842 263.974,529.848 261.647,536.238 					"/>
					<polygon fill="#AAA7D3" points="256.464,537.924 263.974,529.848 261.641,536.256 					"/>
				</g>
			</g>
		</g>
	</g>
</g>
<g>
	<g>
		<linearGradient id="SVGID_4_" gradientUnits="userSpaceOnUse" x1="403.9375" y1="585.459" x2="677.1888" y2="585.459">
			<stop  offset="0.3011" style="stop-color:#393E98"/>
			<stop  offset="0.5217" style="stop-color:#32788D"/>
			<stop  offset="0.6915" style="stop-color:#319F7B"/>
			<stop  offset="0.7688" style="stop-color:#32AF6E"/>
		</linearGradient>
		<path fill="none" stroke="url(#SVGID_4_)" stroke-width="2" stroke-miterlimit="10" d="M408.11,585.32
			c0.597,0.086,1.256,0.178,1.977,0.277"/>
		<linearGradient id="SVGID_5_" gradientUnits="userSpaceOnUse" x1="403.9443" y1="538.7578" x2="676.8419" y2="538.7578">
			<stop  offset="0.3011" style="stop-color:#393E98"/>
			<stop  offset="0.5217" style="stop-color:#32788D"/>
			<stop  offset="0.6915" style="stop-color:#319F7B"/>
			<stop  offset="0.7688" style="stop-color:#32AF6E"/>
		</linearGradient>
		<path fill="none" stroke="url(#SVGID_5_)" stroke-width="2" stroke-miterlimit="10" stroke-dasharray="4.0396,4.0396" d="
			M414.09,586.117c42.964,5.32,212.098,18.342,257.837-98.646"/>
		<linearGradient id="SVGID_6_" gradientUnits="userSpaceOnUse" x1="403.9443" y1="484.6406" x2="676.8407" y2="484.6406">
			<stop  offset="0.3011" style="stop-color:#393E98"/>
			<stop  offset="0.5217" style="stop-color:#32788D"/>
			<stop  offset="0.6915" style="stop-color:#319F7B"/>
			<stop  offset="0.7688" style="stop-color:#32AF6E"/>
		</linearGradient>
		<path fill="none" stroke="url(#SVGID_6_)" stroke-width="2" stroke-miterlimit="10" d="M672.653,485.574
			c0.233-0.623,0.464-1.248,0.69-1.879"/>
		<g>
			<g>
				<circle fill="#FFFFFF" cx="408.332" cy="585.305" r="3.76"/>
				<linearGradient id="SVGID_7_" gradientUnits="userSpaceOnUse" x1="403.9443" y1="585.3301" x2="676.8411" y2="585.3301">
					<stop  offset="0.3011" style="stop-color:#393E98"/>
					<stop  offset="0.5217" style="stop-color:#32788D"/>
					<stop  offset="0.6915" style="stop-color:#319F7B"/>
					<stop  offset="0.7688" style="stop-color:#32AF6E"/>
				</linearGradient>
				<path fill="url(#SVGID_7_)" d="M407.734,589.521c2.326,0.33,4.486-1.295,4.815-3.621c0.329-2.324-1.295-4.484-3.621-4.814
					c-2.325-0.33-4.485,1.295-4.814,3.621C403.785,587.031,405.409,589.191,407.734,589.521
					C410.061,589.852,405.409,589.191,407.734,589.521z M408.789,582.076c1.78,0.252,3.022,1.904,2.771,3.684
					c-0.252,1.781-1.904,3.023-3.685,2.771s-3.022-1.904-2.771-3.684C405.356,583.066,407.009,581.824,408.789,582.076
					S407.009,581.824,408.789,582.076z"/>
			</g>
		</g>
		<g>
			<g>
				<linearGradient id="SVGID_8_" gradientUnits="userSpaceOnUse" x1="403.9443" y1="483.0439" x2="676.8403" y2="483.0439">
					<stop  offset="0.3011" style="stop-color:#393E98"/>
					<stop  offset="0.5217" style="stop-color:#32788D"/>
					<stop  offset="0.6915" style="stop-color:#319F7B"/>
					<stop  offset="0.7688" style="stop-color:#32AF6E"/>
				</linearGradient>
				<polygon fill="url(#SVGID_8_)" points="676.857,490.092 673.037,484.273 666.447,486.514 675.883,475.996 				"/>
				<g>
					<linearGradient id="SVGID_9_" gradientUnits="userSpaceOnUse" x1="403.9443" y1="482.7314" x2="676.8407" y2="482.7314">
						<stop  offset="0.3011" style="stop-color:#393E98"/>
						<stop  offset="0.5217" style="stop-color:#32788D"/>
						<stop  offset="0.6915" style="stop-color:#319F7B"/>
						<stop  offset="0.7688" style="stop-color:#32AF6E"/>
					</linearGradient>
					<polygon fill="url(#SVGID_9_)" points="676.228,488.227 675.456,477.236 673.242,483.678 					"/>
					<linearGradient id="SVGID_10_" gradientUnits="userSpaceOnUse" x1="403.9443" y1="481.334" x2="676.8411" y2="481.334">
						<stop  offset="0.3011" style="stop-color:#393E98"/>
						<stop  offset="0.5217" style="stop-color:#32788D"/>
						<stop  offset="0.6915" style="stop-color:#319F7B"/>
						<stop  offset="0.7688" style="stop-color:#32AF6E"/>
					</linearGradient>
					<polygon fill="url(#SVGID_10_)" points="668.096,485.432 675.456,477.236 673.242,483.678 					"/>
				</g>
			</g>
		</g>
	</g>
</g>
<g>
	<g>
		<linearGradient id="SVGID_11_" gradientUnits="userSpaceOnUse" x1="604.874" y1="187.8564" x2="638.8946" y2="187.8564">
			<stop  offset="0.1075" style="stop-color:#32AF6E"/>
			<stop  offset="1" style="stop-color:#2484C6;stop-opacity:0"/>
		</linearGradient>
		<path fill="none" stroke="url(#SVGID_11_)" stroke-width="2" stroke-miterlimit="10" stroke-dasharray="4,4" d="M635.979,129.077
			c-6.25,11.061-24.681,48.917-29.601,117.979"/>
		<g>
			<g>
				<circle fill="#FFFFFF" cx="635.913" cy="129.288" r="3.76"/>
				<linearGradient id="SVGID_12_" gradientUnits="userSpaceOnUse" x1="604.8701" y1="129.2881" x2="638.8945" y2="129.2881">
					<stop  offset="0.1075" style="stop-color:#32AF6E"/>
					<stop  offset="1" style="stop-color:#2484C6;stop-opacity:0"/>
				</linearGradient>
				<path fill="url(#SVGID_12_)" d="M632.238,127.133c-1.188,2.026-0.506,4.642,1.52,5.83c2.026,1.188,4.642,0.506,5.83-1.521
					c1.188-2.026,0.506-4.641-1.521-5.829S633.426,125.107,632.238,127.133C631.05,129.16,633.426,125.107,632.238,127.133z
					 M638.725,130.937c-0.909,1.551-2.909,2.073-4.461,1.164c-1.551-0.909-2.072-2.91-1.163-4.461s2.91-2.073,4.461-1.163
					C639.112,127.385,639.634,129.386,638.725,130.937C637.815,132.488,639.634,129.386,638.725,130.937z"/>
			</g>
		</g>
		<g>
			<g>
				<g>
					<linearGradient id="SVGID_13_" gradientUnits="userSpaceOnUse" x1="604.874" y1="248.4629" x2="638.8945" y2="248.4629">
						<stop  offset="0.1075" style="stop-color:#32AF6E"/>
						<stop  offset="1" style="stop-color:#2484C6;stop-opacity:0"/>
					</linearGradient>
					<polygon fill="url(#SVGID_13_)" points="601.309,241.777 606.496,246.417 612.289,242.56 605.873,255.149 					"/>
					<linearGradient id="SVGID_14_" gradientUnits="userSpaceOnUse" x1="604.874" y1="248.6426" x2="638.8945" y2="248.6426">
						<stop  offset="0.1075" style="stop-color:#32AF6E"/>
						<stop  offset="1" style="stop-color:#2484C6;stop-opacity:0"/>
					</linearGradient>
					<polygon fill="url(#SVGID_14_)" points="602.393,243.436 605.966,253.85 606.449,247.066 					"/>
					<linearGradient id="SVGID_15_" gradientUnits="userSpaceOnUse" x1="604.874" y1="248.9355" x2="638.8945" y2="248.9355">
						<stop  offset="0.1075" style="stop-color:#32AF6E"/>
						<stop  offset="1" style="stop-color:#2484C6;stop-opacity:0"/>
					</linearGradient>
					<polygon fill="url(#SVGID_15_)" points="610.971,244.021 605.966,253.85 606.451,247.047 					"/>
				</g>
			</g>
		</g>
	</g>
</g>
<g opacity="0.8">
	<g>
		<path fill="none" stroke="#32AF6E" stroke-miterlimit="10" d="M654.356,375.379c-4.035-10.277-16.147-38.861-30.909-52.371"/>
		<g>
			<g>
				<circle fill="#FFFFFF" cx="654.237" cy="375.191" r="3.76"/>
				<path fill="#32AF6E" d="M658.203,373.637c-0.857-2.188-3.335-3.268-5.521-2.41c-2.187,0.857-3.269,3.334-2.411,5.521
					c0.858,2.186,3.335,3.268,5.521,2.41S659.061,375.822,658.203,373.637C657.346,371.449,659.061,375.822,658.203,373.637z
					 M651.203,376.383c-0.657-1.674,0.171-3.568,1.844-4.225c1.674-0.658,3.569,0.17,4.226,1.844s-0.171,3.568-1.845,4.225
					S651.859,378.057,651.203,376.383C650.546,374.709,651.859,378.057,651.203,376.383z"/>
			</g>
		</g>
		<g>
			<g>
				<polygon fill="#32AF6E" points="630.532,321.973 623.775,323.643 623.696,330.602 616.914,318.205 				"/>
				<g>
					<polygon fill="#BDDCC4" points="628.564,321.947 617.942,319.021 623.281,323.25 					"/>
					<polygon fill="#8FC8A1" points="623.225,328.688 617.942,319.021 623.281,323.25 					"/>
				</g>
			</g>
		</g>
	</g>
</g>
<g opacity="0.5">
	<g>
		<path fill="none" stroke="#32AF6E" stroke-miterlimit="10" d="M596.255,325.252c0.647,2.852,0.824,6.855-1.664,10.561"/>
		<g>
			<g>
				<circle fill="#FFFFFF" cx="596.294" cy="325.465" r="3.76"/>
				<path fill="#32AF6E" d="M592.247,326.795c0.733,2.23,3.146,3.449,5.377,2.717c2.231-0.734,3.45-3.146,2.717-5.377
					c-0.733-2.232-3.146-3.451-5.377-2.717C592.732,322.15,591.514,324.563,592.247,326.795
					C592.98,329.025,591.514,324.563,592.247,326.795z M599.391,324.447c0.562,1.707-0.371,3.553-2.079,4.113
					c-1.708,0.563-3.553-0.371-4.114-2.078c-0.562-1.709,0.371-3.553,2.079-4.115C596.984,321.807,598.829,322.738,599.391,324.447
					C599.952,326.154,598.829,322.738,599.391,324.447z"/>
			</g>
		</g>
		<g>
			<g>
				<polygon fill="#32AF6E" points="593.479,327.879 594.478,334.768 601.396,335.527 588.396,341.064 				"/>
				<g>
					<polygon fill="#BDDCC4" points="593.261,329.836 589.309,340.119 594.04,335.221 					"/>
					<polygon fill="#8FC8A1" points="599.445,335.809 589.309,340.119 594.04,335.221 					"/>
				</g>
			</g>
		</g>
	</g>
</g>
<g opacity="0.5">
	<g>
		<path fill="none" stroke="#32AF6E" stroke-miterlimit="10" d="M566.774,290.141c-4.11-2.61-11.231-6.343-16.701-5.043"/>
		<g>
			<g>
				<circle fill="#FFFFFF" cx="566.586" cy="290.036" r="3.76"/>
				<path fill="#32AF6E" d="M568.996,286.522c-1.937-1.329-4.594-0.833-5.922,1.104c-1.329,1.937-0.834,4.594,1.104,5.922
					c1.937,1.329,4.594,0.833,5.922-1.104S570.933,287.851,568.996,286.522S570.933,287.851,568.996,286.522z M564.743,292.724
					c-1.482-1.017-1.861-3.049-0.845-4.532c1.017-1.483,3.05-1.862,4.532-0.845s1.861,3.049,0.845,4.532
					C568.258,293.362,566.226,293.741,564.743,292.724S566.226,293.741,564.743,292.724z"/>
			</g>
		</g>
		<g>
			<g>
				<polygon fill="#32AF6E" points="552.189,278.993 551.499,285.918 558.03,288.323 544.079,290.563 				"/>
				<g>
					<polygon fill="#BDDCC4" points="551.506,280.838 545.191,289.867 550.964,286.253 					"/>
					<polygon fill="#8FC8A1" points="556.068,288.127 545.191,289.867 550.964,286.253 					"/>
				</g>
			</g>
		</g>
	</g>
</g>
<g opacity="0.5">
	<g>
		<path fill="none" stroke="#32AF6E" stroke-miterlimit="10" d="M666.914,293.217c-7.596-2.216-19.216-4.628-27.223-1.752"/>
		<g>
			<g>
				<polygon fill="#32AF6E" points="663.869,286.604 666.251,293.144 660.518,297.089 674.589,295.81 				"/>
				<g>
					<polygon fill="#BDDCC4" points="664.988,288.224 673.339,295.41 666.852,293.336 					"/>
					<polygon fill="#8FC8A1" points="662.369,296.414 673.339,295.41 666.852,293.336 					"/>
				</g>
			</g>
		</g>
		<g>
			<g>
				<circle fill="#FFFFFF" cx="639.894" cy="291.399" r="3.76"/>
				<path fill="#32AF6E" d="M637.973,287.597c2.097-1.059,4.664-0.215,5.724,1.881c1.059,2.096,0.215,4.664-1.882,5.723
					c-2.096,1.059-4.663,0.215-5.723-1.881S635.877,288.656,637.973,287.597C640.069,286.538,635.877,288.656,637.973,287.597z
					 M641.364,294.309c1.604-0.811,2.25-2.775,1.439-4.379c-0.812-1.604-2.775-2.25-4.38-1.439c-1.604,0.811-2.25,2.775-1.439,4.379
					C637.795,294.474,639.759,295.12,641.364,294.309C642.969,293.498,639.759,295.12,641.364,294.309z"/>
			</g>
		</g>
	</g>
</g>
<g opacity="0.5">
	<g>
		<path fill="none" stroke="#32AF6E" stroke-miterlimit="10" d="M561.018,237.246c4.668,7.969,12.639,20.125,19.101,22.622"/>
		<g>
			<g>
				<polygon fill="#32AF6E" points="558.718,244.192 561.405,237.772 568.294,238.765 557.089,230.157 				"/>
				<g>
					<polygon fill="#BDDCC4" points="558.995,242.244 557.736,231.299 561.094,237.224 					"/>
					<polygon fill="#8FC8A1" points="566.476,238.004 557.736,231.299 561.094,237.224 					"/>
				</g>
			</g>
		</g>
		<g>
			<g>
				<circle fill="#FFFFFF" cx="579.911" cy="259.768" r="3.76"/>
				<path fill="#32AF6E" d="M579.737,264.024c-2.347-0.096-4.179-2.083-4.083-4.43s2.084-4.178,4.431-4.083s4.178,2.083,4.082,4.43
					S582.084,264.12,579.737,264.024C577.391,263.928,582.084,264.12,579.737,264.024z M580.044,256.511
					c-1.797-0.073-3.316,1.328-3.391,3.124c-0.073,1.796,1.328,3.317,3.124,3.39c1.797,0.074,3.317-1.328,3.391-3.124
					S581.84,256.584,580.044,256.511C578.247,256.438,581.84,256.584,580.044,256.511z"/>
			</g>
		</g>
	</g>
</g>
<g opacity="0.5">
	<g>
		<path fill="none" stroke="#393E98" stroke-miterlimit="10" d="M359.3,471.936c4.812,2.029,13.208,4.668,17.895,0.898"/>
		<g>
			<g>
				<circle fill="#FFFFFF" cx="359.501" cy="472.012" r="3.759"/>
				<path fill="#393E98" d="M357.694,475.869c2.127,0.996,4.669,0.076,5.664-2.051c0.996-2.127,0.076-4.668-2.051-5.664
					s-4.668-0.076-5.664,2.051S355.567,474.873,357.694,475.869S355.567,474.873,357.694,475.869z M360.884,469.061
					c1.628,0.762,2.332,2.705,1.57,4.334c-0.764,1.629-2.707,2.332-4.335,1.57c-1.628-0.764-2.333-2.707-1.569-4.336
					C357.312,469.002,359.255,468.297,360.884,469.061C362.512,469.822,359.255,468.297,360.884,469.061z"/>
			</g>
		</g>
		<g>
			<g>
				<polygon fill="#393E98" points="377.647,479.27 375.544,472.635 368.595,473.008 380.524,465.436 				"/>
				<g>
					<polygon fill="#AAA7D3" points="377.546,477.303 379.777,466.514 375.903,472.115 					"/>
					<polygon fill="#7C78B9" points="370.474,472.412 379.777,466.514 375.903,472.115 					"/>
				</g>
			</g>
		</g>
	</g>
</g>
<g opacity="0.5">
	<g>
		<path fill="none" stroke="#32AF6E" stroke-miterlimit="10" d="M566.389,475.996c-5.773-2.379-17.179-6.611-26.161-7.033"/>
		<g>
			<g>
				<circle fill="#FFFFFF" cx="566.185" cy="475.922" r="3.759"/>
				<path fill="#32AF6E" d="M567.863,472.006c-2.158-0.926-4.668,0.078-5.594,2.236s0.078,4.668,2.236,5.594
					s4.668-0.078,5.594-2.236S570.021,472.932,567.863,472.006S570.021,472.932,567.863,472.006z M564.9,478.918
					c-1.653-0.709-2.42-2.629-1.712-4.281c0.709-1.652,2.628-2.42,4.28-1.711c1.653,0.709,2.42,2.627,1.712,4.279
					C568.472,478.857,566.553,479.625,564.9,478.918C563.247,478.209,566.553,479.625,564.9,478.918z"/>
			</g>
		</g>
		<g>
			<g>
				<polygon fill="#32AF6E" points="544.699,463.508 540.918,469.352 545.626,474.477 532.195,470.088 				"/>
				<g>
					<polygon fill="#BDDCC4" points="543.247,464.838 533.503,469.979 540.29,469.404 					"/>
					<polygon fill="#8FC8A1" points="543.972,473.406 533.503,469.979 540.29,469.404 					"/>
				</g>
			</g>
		</g>
	</g>
</g>
<g opacity="0.5">
	<g>
		<path fill="none" stroke="#32AF6E" stroke-miterlimit="10" d="M570.361,528.582c-4.951,2.35-14.212,6.012-22.602,5.277"/>
		<g>
			<g>
				<circle fill="#FFFFFF" cx="570.162" cy="528.666" r="3.76"/>
				<path fill="#32AF6E" d="M568.223,524.873c-2.091,1.07-2.922,3.641-1.853,5.732c1.069,2.09,3.641,2.922,5.732,1.854
					c2.091-1.07,2.922-3.643,1.853-5.732C572.886,524.635,570.313,523.803,568.223,524.873S570.313,523.803,568.223,524.873z
					 M571.646,531.568c-1.601,0.818-3.567,0.182-4.386-1.418c-0.819-1.602-0.184-3.568,1.418-4.387
					c1.601-0.818,3.567-0.184,4.386,1.418C573.884,528.781,573.247,530.75,571.646,531.568S573.247,530.75,571.646,531.568z"/>
			</g>
		</g>
		<g>
			<g>
				<polygon fill="#32AF6E" points="553.916,529.09 548.529,533.496 551.445,539.816 539.999,531.531 				"/>
				<g>
					<polygon fill="#BDDCC4" points="552.127,529.91 541.278,531.826 547.915,533.355 					"/>
					<polygon fill="#8FC8A1" points="550.197,538.289 541.278,531.826 547.915,533.355 					"/>
				</g>
			</g>
		</g>
	</g>
</g>
<g opacity="0.8">
	<g>
		<path fill="none" stroke="#32AF6E" stroke-miterlimit="10" d="M634.313,457.1c1.206,6.818,2.631,20.459-4.181,24.764"/>
		<g>
			<g>
				<circle fill="#FFFFFF" cx="634.332" cy="457.316" r="3.76"/>
				<path fill="#32AF6E" d="M630.156,458.158c0.463,2.303,2.714,3.799,5.017,3.334c2.302-0.463,3.799-2.713,3.335-5.016
					s-2.714-3.799-5.017-3.336C631.188,453.605,629.692,455.855,630.156,458.158C630.619,460.461,629.692,455.855,630.156,458.158z
					 M637.527,456.674c0.354,1.762-0.79,3.484-2.552,3.84c-1.763,0.354-3.484-0.791-3.84-2.553c-0.354-1.764,0.79-3.484,2.553-3.84
					C635.451,453.768,637.173,454.912,637.527,456.674S637.173,454.912,637.527,456.674z"/>
			</g>
		</g>
		<g>
			<g>
				<polygon fill="#32AF6E" points="632.958,473.873 630.461,480.369 636.124,484.416 622.077,482.887 				"/>
				<g>
					<polygon fill="#BDDCC4" points="631.811,475.473 623.334,482.51 629.856,480.551 					"/>
					<polygon fill="#8FC8A1" points="634.284,483.707 623.334,482.51 629.856,480.551 					"/>
				</g>
			</g>
		</g>
	</g>
</g>
<g>
	<g>
		<linearGradient id="SVGID_16_" gradientUnits="userSpaceOnUse" x1="431.9229" y1="455.2988" x2="480.4061" y2="455.2988">
			<stop  offset="0.3011" style="stop-color:#393E98"/>
			<stop  offset="0.5217" style="stop-color:#32788D"/>
			<stop  offset="0.6915" style="stop-color:#319F7B"/>
			<stop  offset="0.7688" style="stop-color:#32AF6E"/>
		</linearGradient>
		<path fill="none" stroke="url(#SVGID_16_)" stroke-miterlimit="10" d="M435.96,455.824c7.386-2.021,23.969-5.26,37.414,1.566"/>
		<g>
			<g>
				<circle fill="#FFFFFF" cx="436.173" cy="455.786" r="3.76"/>
				<linearGradient id="SVGID_17_" gradientUnits="userSpaceOnUse" x1="431.9229" y1="455.793" x2="480.4063" y2="455.793">
					<stop  offset="0.3011" style="stop-color:#393E98"/>
					<stop  offset="0.5217" style="stop-color:#32788D"/>
					<stop  offset="0.6915" style="stop-color:#319F7B"/>
					<stop  offset="0.7688" style="stop-color:#32AF6E"/>
				</linearGradient>
				<path fill="url(#SVGID_17_)" d="M437.409,459.863c2.247-0.682,3.522-3.064,2.841-5.313s-3.064-3.523-5.313-2.842
					s-3.522,3.064-2.841,5.313S435.161,460.545,437.409,459.863C439.656,459.182,435.161,460.545,437.409,459.863z M435.228,452.666
					c1.721-0.521,3.544,0.453,4.065,2.174s-0.453,3.545-2.174,4.066s-3.544-0.453-4.065-2.174S433.507,453.188,435.228,452.666
					S433.507,453.188,435.228,452.666z"/>
			</g>
		</g>
		<g>
			<g>
				<linearGradient id="SVGID_18_" gradientUnits="userSpaceOnUse" x1="431.9229" y1="456.1797" x2="480.4062" y2="456.1797">
					<stop  offset="0.3011" style="stop-color:#393E98"/>
					<stop  offset="0.5217" style="stop-color:#32788D"/>
					<stop  offset="0.6915" style="stop-color:#319F7B"/>
					<stop  offset="0.7688" style="stop-color:#32AF6E"/>
				</linearGradient>
				<polygon fill="url(#SVGID_18_)" points="466.116,459.75 472.642,457.328 471.934,450.404 480.073,461.955 				"/>
				<g>
					<linearGradient id="SVGID_19_" gradientUnits="userSpaceOnUse" x1="431.9229" y1="459.4619" x2="480.4062" y2="459.4619">
						<stop  offset="0.3011" style="stop-color:#393E98"/>
						<stop  offset="0.5217" style="stop-color:#32788D"/>
						<stop  offset="0.6915" style="stop-color:#319F7B"/>
						<stop  offset="0.7688" style="stop-color:#32AF6E"/>
					</linearGradient>
					<polygon fill="url(#SVGID_19_)" points="468.075,459.553 478.959,461.262 473.177,457.662 					"/>
					<linearGradient id="SVGID_20_" gradientUnits="userSpaceOnUse" x1="431.9229" y1="456.7578" x2="480.4063" y2="456.7578">
						<stop  offset="0.3011" style="stop-color:#393E98"/>
						<stop  offset="0.5217" style="stop-color:#32788D"/>
						<stop  offset="0.6915" style="stop-color:#319F7B"/>
						<stop  offset="0.7688" style="stop-color:#32AF6E"/>
					</linearGradient>
					<polygon fill="url(#SVGID_20_)" points="472.619,452.254 478.959,461.262 473.177,457.662 					"/>
				</g>
			</g>
		</g>
	</g>
</g>
<g>
	<g>
		<linearGradient id="SVGID_21_" gradientUnits="userSpaceOnUse" x1="413.1377" y1="505.54" x2="489.0244" y2="505.54">
			<stop  offset="0.3011" style="stop-color:#393E98"/>
			<stop  offset="0.5217" style="stop-color:#32788D"/>
			<stop  offset="0.6915" style="stop-color:#319F7B"/>
			<stop  offset="0.7688" style="stop-color:#32AF6E"/>
		</linearGradient>
		<path fill="none" stroke="url(#SVGID_21_)" stroke-miterlimit="10" d="M414.922,485.639c4.061,10.107,19.184,36.904,66.002,39.49"
			/>
		<g>
			<g>
				<circle fill="#FFFFFF" cx="415.003" cy="485.841" r="3.76"/>
				<linearGradient id="SVGID_22_" gradientUnits="userSpaceOnUse" x1="413.1387" y1="485.8398" x2="489.0167" y2="485.8398">
					<stop  offset="0.3011" style="stop-color:#393E98"/>
					<stop  offset="0.5217" style="stop-color:#32788D"/>
					<stop  offset="0.6915" style="stop-color:#319F7B"/>
					<stop  offset="0.7688" style="stop-color:#32AF6E"/>
				</linearGradient>
				<path fill="url(#SVGID_22_)" d="M410.974,487.221c0.76,2.221,3.188,3.41,5.409,2.65c2.223-0.762,3.411-3.188,2.651-5.41
					c-0.761-2.223-3.188-3.412-5.41-2.65C411.402,482.57,410.213,484.998,410.974,487.221
					C411.733,489.441,410.213,484.998,410.974,487.221z M418.088,484.785c0.582,1.701-0.328,3.557-2.028,4.139
					c-1.701,0.582-3.558-0.326-4.141-2.027c-0.582-1.701,0.328-3.559,2.029-4.141C415.648,482.174,417.506,483.084,418.088,484.785
					S417.506,483.084,418.088,484.785z"/>
			</g>
		</g>
		<g>
			<g>
				<linearGradient id="SVGID_23_" gradientUnits="userSpaceOnUse" x1="413.1377" y1="524.8574" x2="489.0244" y2="524.8574">
					<stop  offset="0.3011" style="stop-color:#393E98"/>
					<stop  offset="0.5217" style="stop-color:#32788D"/>
					<stop  offset="0.6915" style="stop-color:#319F7B"/>
					<stop  offset="0.7688" style="stop-color:#32AF6E"/>
				</linearGradient>
				<polygon fill="url(#SVGID_23_)" points="475.818,530.357 480.274,525.012 476.217,519.357 489.022,525.328 				"/>
				<g>
					<linearGradient id="SVGID_24_" gradientUnits="userSpaceOnUse" x1="413.1377" y1="527.124" x2="489.0244" y2="527.124">
						<stop  offset="0.3011" style="stop-color:#393E98"/>
						<stop  offset="0.5217" style="stop-color:#32788D"/>
						<stop  offset="0.6915" style="stop-color:#319F7B"/>
						<stop  offset="0.7688" style="stop-color:#32AF6E"/>
					</linearGradient>
					<polygon fill="url(#SVGID_24_)" points="477.419,529.213 487.711,525.281 480.904,525.035 					"/>
					<linearGradient id="SVGID_25_" gradientUnits="userSpaceOnUse" x1="413.1377" y1="522.9502" x2="489.0244" y2="522.9502">
						<stop  offset="0.3011" style="stop-color:#393E98"/>
						<stop  offset="0.5217" style="stop-color:#32788D"/>
						<stop  offset="0.6915" style="stop-color:#319F7B"/>
						<stop  offset="0.7688" style="stop-color:#32AF6E"/>
					</linearGradient>
					<polygon fill="url(#SVGID_25_)" points="477.73,520.619 487.711,525.281 480.904,525.035 					"/>
				</g>
			</g>
		</g>
	</g>
</g>
<linearGradient id="SVGID_26_" gradientUnits="userSpaceOnUse" x1="250.9814" y1="449.7207" x2="250.9814" y2="449.7207">
	<stop  offset="0.3011" style="stop-color:#393E98"/>
	<stop  offset="0.5217" style="stop-color:#32788D"/>
	<stop  offset="0.6915" style="stop-color:#319F7B"/>
	<stop  offset="0.7688" style="stop-color:#32AF6E"/>
</linearGradient>
<path fill="none" stroke="url(#SVGID_26_)" stroke-miterlimit="10" d="M250.981,449.721"/>
<g>
	<g>
		<linearGradient id="SVGID_27_" gradientUnits="userSpaceOnUse" x1="242.1006" y1="504.3359" x2="505.007" y2="504.3359">
			<stop  offset="0.3011" style="stop-color:#393E98"/>
			<stop  offset="0.5217" style="stop-color:#32788D"/>
			<stop  offset="0.6915" style="stop-color:#319F7B"/>
			<stop  offset="0.7688" style="stop-color:#32AF6E"/>
		</linearGradient>
		<path fill="none" stroke="url(#SVGID_27_)" stroke-miterlimit="10" d="M501.093,547.563c-19.11-8.164-106.323-45.049-129.238-48.1
			c-25.781-3.432-21.476,45.123-34.129,24.846c-10.398-16.664-68.127-51.385-88.365-63.229"/>
		<g>
			<g>
				<circle fill="#FFFFFF" cx="500.887" cy="547.49" r="3.76"/>
				<linearGradient id="SVGID_28_" gradientUnits="userSpaceOnUse" x1="242.1011" y1="547.4912" x2="505.0061" y2="547.4912">
					<stop  offset="0.3011" style="stop-color:#393E98"/>
					<stop  offset="0.5217" style="stop-color:#32788D"/>
					<stop  offset="0.6915" style="stop-color:#319F7B"/>
					<stop  offset="0.7688" style="stop-color:#32AF6E"/>
				</linearGradient>
				<path fill="url(#SVGID_28_)" d="M502.552,543.57c-2.162-0.918-4.668,0.094-5.586,2.256s0.094,4.668,2.256,5.586
					s4.668-0.094,5.586-2.256S504.714,544.488,502.552,543.57S504.714,544.488,502.552,543.57z M499.612,550.492
					c-1.654-0.703-2.429-2.621-1.726-4.275c0.702-1.654,2.619-2.43,4.274-1.727c1.654,0.703,2.429,2.619,1.726,4.275
					C503.185,550.42,501.268,551.193,499.612,550.492C497.958,549.789,501.268,551.193,499.612,550.492z"/>
			</g>
		</g>
		<g>
			<g>
				<linearGradient id="SVGID_29_" gradientUnits="userSpaceOnUse" x1="242.1016" y1="462.6787" x2="505.0064" y2="462.6787">
					<stop  offset="0.3011" style="stop-color:#393E98"/>
					<stop  offset="0.5217" style="stop-color:#32788D"/>
					<stop  offset="0.6915" style="stop-color:#319F7B"/>
					<stop  offset="0.7688" style="stop-color:#32AF6E"/>
				</linearGradient>
				<polygon fill="url(#SVGID_29_)" points="256.362,458.83 249.907,461.436 250.812,468.336 242.349,457.021 				"/>
				<g>
					<linearGradient id="SVGID_30_" gradientUnits="userSpaceOnUse" x1="242.1011" y1="459.4004" x2="504.994" y2="459.4004">
						<stop  offset="0.3011" style="stop-color:#393E98"/>
						<stop  offset="0.5217" style="stop-color:#32788D"/>
						<stop  offset="0.6915" style="stop-color:#319F7B"/>
						<stop  offset="0.7688" style="stop-color:#32AF6E"/>
					</linearGradient>
					<polygon fill="url(#SVGID_30_)" points="254.409,459.082 243.481,457.684 249.363,461.117 					"/>
					<linearGradient id="SVGID_31_" gradientUnits="userSpaceOnUse" x1="242.1011" y1="462.0957" x2="505.0057" y2="462.0957">
						<stop  offset="0.3011" style="stop-color:#393E98"/>
						<stop  offset="0.5217" style="stop-color:#32788D"/>
						<stop  offset="0.6915" style="stop-color:#319F7B"/>
						<stop  offset="0.7688" style="stop-color:#32AF6E"/>
					</linearGradient>
					<polygon fill="url(#SVGID_31_)" points="250.074,466.508 243.481,457.684 249.363,461.117 					"/>
				</g>
			</g>
		</g>
	</g>
</g>
<g>
	<g>
		<linearGradient id="SVGID_32_" gradientUnits="userSpaceOnUse" x1="372.4888" y1="389.5977" x2="506.8241" y2="389.5977">
			<stop  offset="0.3011" style="stop-color:#393E98"/>
			<stop  offset="0.5217" style="stop-color:#32788D"/>
			<stop  offset="0.6915" style="stop-color:#319F7B"/>
			<stop  offset="0.7688" style="stop-color:#32AF6E"/>
		</linearGradient>
		<path fill="none" stroke="url(#SVGID_32_)" stroke-miterlimit="10" d="M505.457,432.143
			c-4.306-16.76-27.193-81.314-124.856-84.713"/>
		<g>
			<g>
				<circle fill="#FFFFFF" cx="505.394" cy="431.934" r="3.759"/>
				<linearGradient id="SVGID_33_" gradientUnits="userSpaceOnUse" x1="372.4888" y1="431.9336" x2="506.8239" y2="431.9336">
					<stop  offset="0.3011" style="stop-color:#393E98"/>
					<stop  offset="0.5217" style="stop-color:#32788D"/>
					<stop  offset="0.6915" style="stop-color:#319F7B"/>
					<stop  offset="0.7688" style="stop-color:#32AF6E"/>
				</linearGradient>
				<path fill="url(#SVGID_33_)" d="M509.55,430.998c-0.517-2.291-2.801-3.736-5.092-3.221c-2.291,0.518-3.735,2.801-3.22,5.092
					c0.517,2.291,2.801,3.736,5.092,3.221C508.621,435.572,510.065,433.289,509.55,430.998
					C509.033,428.707,510.065,433.289,509.55,430.998z M502.214,432.65c-0.396-1.754,0.71-3.502,2.464-3.896
					s3.501,0.709,3.896,2.463c0.395,1.754-0.71,3.502-2.464,3.896C504.356,435.51,502.609,434.404,502.214,432.65
					S502.609,434.404,502.214,432.65z"/>
			</g>
		</g>
		<g>
			<g>
				<g>
					<linearGradient id="SVGID_34_" gradientUnits="userSpaceOnUse" x1="372.4893" y1="347.5938" x2="506.8243" y2="347.5938">
						<stop  offset="0.3011" style="stop-color:#393E98"/>
						<stop  offset="0.5217" style="stop-color:#32788D"/>
						<stop  offset="0.6915" style="stop-color:#319F7B"/>
						<stop  offset="0.7688" style="stop-color:#32AF6E"/>
					</linearGradient>
					<polygon fill="url(#SVGID_34_)" points="385.628,342.092 381.241,347.494 385.371,353.096 372.489,347.291 					"/>
					<linearGradient id="SVGID_35_" gradientUnits="userSpaceOnUse" x1="372.4897" y1="345.3662" x2="506.825" y2="345.3662">
						<stop  offset="0.3011" style="stop-color:#393E98"/>
						<stop  offset="0.5217" style="stop-color:#32788D"/>
						<stop  offset="0.6915" style="stop-color:#319F7B"/>
						<stop  offset="0.7688" style="stop-color:#32AF6E"/>
					</linearGradient>
					<polygon fill="url(#SVGID_35_)" points="384.022,343.254 373.792,347.32 380.591,347.479 					"/>
					<linearGradient id="SVGID_36_" gradientUnits="userSpaceOnUse" x1="372.4897" y1="349.585" x2="506.8243" y2="349.585">
						<stop  offset="0.3011" style="stop-color:#393E98"/>
						<stop  offset="0.5217" style="stop-color:#32788D"/>
						<stop  offset="0.6915" style="stop-color:#319F7B"/>
						<stop  offset="0.7688" style="stop-color:#32AF6E"/>
					</linearGradient>
					<polygon fill="url(#SVGID_36_)" points="383.849,351.85 373.792,347.32 380.609,347.48 					"/>
				</g>
			</g>
		</g>
	</g>
</g>
</svg>
